Topmarks-Book.ufo
<glyph name="exclam" format="1">
  <advance width="739.4"/>
  <unicode hex="0021"/>
  <outline>
    <contour>
      <point x="369.2" y="-5.4" type="curve" smooth="yes"/>
      <point x="430.9" y="-5.4"/>
      <point x="489.9" y="38.9"/>
      <point x="489.9" y="112.0" type="curve" smooth="yes"/>
      <point x="489.9" y="176.2"/>
      <point x="446.3" y="230.4"/>
      <point x="370.2" y="230.4" type="curve" smooth="yes"/>
      <point x="308.5" y="230.4"/>
      <point x="249.5" y="186.2"/>
      <point x="249.5" y="113.2" type="curve" smooth="yes"/>
      <point x="249.5" y="48.9"/>
      <point x="293.0" y="-5.4"/>
    </contour>
    <contour>
      <point x="319.8" y="387.5" type="line"/>
      <point x="410.1" y="387.5" type="line"/>
      <point x="464.5" y="1480.8" type="line"/>
      <point x="264.8" y="1480.8" type="line"/>
    </contour>
  </outline>
</glyph>
<glyph name="quotedbl" format="1">
  <advance width="774.8"/>
  <unicode hex="0022"/>
  <outline>
    <contour>
      <point x="159.3" y="1068.8" type="line"/>
      <point x="292.5" y="1068.8" type="line"/>
      <point x="292.5" y="1538.8" type="line"/>
      <point x="122.6" y="1538.8" type="line"/>
    </contour>
    <contour>
      <point x="453.3" y="1068.8" type="line"/>
      <point x="585.5" y="1068.8" type="line"/>
      <point x="585.5" y="1538.8" type="line"/>
      <point x="416.7" y="1538.8" type="line"/>
    </contour>
  </outline>
</glyph>
<glyph name="ampersand" format="1">
  <advance width="1772.3"/>
  <unicode hex="0026"/>
  <outline>
    <contour>
      <point x="679.3" y="-29.0" type="curve" smooth="yes"/>
      <point x="916.3" y="-29.0"/>
      <point x="1072.0" y="69.6"/>
      <point x="1193.1" y="187.7" type="curve"/>
      <point x="1284.6" y="100.2"/>
      <point x="1368.0" y="8.6"/>
      <point x="1518.6" y="-13.8" type="curve"/>
      <point x="1653.0" y="85.9" type="line"/>
      <point x="1610.3" y="95.1"/>
      <point x="1572.6" y="104.3"/>
      <point x="1541.0" y="114.4" type="curve" smooth="yes"/>
      <point x="1430.2" y="151.0"/>
      <point x="1364.0" y="210.1"/>
      <point x="1288.7" y="287.4" type="curve"/>
      <point x="1401.7" y="432.8"/>
      <point x="1486.1" y="634.3"/>
      <point x="1495.2" y="876.5" type="curve"/>
      <point x="1325.3" y="897.8" type="line"/>
      <point x="1325.3" y="855.1"/>
      <point x="1321.3" y="812.4"/>
      <point x="1314.1" y="767.6" type="curve" smooth="yes"/>
      <point x="1290.7" y="627.2"/>
      <point x="1238.8" y="500.1"/>
      <point x="1170.7" y="403.4" type="curve"/>
      <point x="748.5" y="834.7" type="line"/>
      <point x="827.9" y="877.4"/>
      <point x="907.2" y="929.4"/>
      <point x="965.2" y="992.5" type="curve" smooth="yes"/>
      <point x="1014.1" y="1045.3"/>
      <point x="1060.8" y="1113.5"/>
      <point x="1060.8" y="1207.1" type="curve" smooth="yes"/>
      <point x="1060.8" y="1256.9"/>
      <point x="1050.6" y="1298.6"/>
      <point x="1028.2" y="1335.3" type="curve" smooth="yes"/>
      <point x="966.2" y="1437.0"/>
      <point x="841.1" y="1497.1"/>
      <point x="679.3" y="1497.1" type="curve" smooth="yes"/>
      <point x="476.8" y="1497.1"/>
      <point x="311.0" y="1403.5"/>
      <point x="311.0" y="1201.1" type="curve" smooth="yes"/>
      <point x="311.0" y="1165.5"/>
      <point x="316.1" y="1132.8"/>
      <point x="327.3" y="1103.3" type="curve" smooth="yes"/>
      <point x="363.9" y="1003.6"/>
      <point x="439.2" y="935.5"/>
      <point x="509.4" y="865.3" type="curve"/>
      <point x="413.8" y="814.4"/>
      <point x="316.0" y="755.4"/>
      <point x="243.8" y="682.1" type="curve" smooth="yes"/>
      <point x="178.6" y="615.9"/>
      <point x="123.8" y="530.6"/>
      <point x="123.8" y="407.4" type="curve" smooth="yes"/>
      <point x="123.8" y="338.3"/>
      <point x="136.9" y="276.2"/>
      <point x="165.4" y="222.3" type="curve" smooth="yes"/>
      <point x="249.9" y="61.5"/>
      <point x="435.1" y="-29.0"/>
    </contour>
    <contour>
      <point x="676.2" y="116.4" type="curve" smooth="yes"/>
      <point x="622.3" y="116.4"/>
      <point x="572.5" y="123.6"/>
      <point x="527.7" y="138.8" type="curve" smooth="yes"/>
      <point x="411.7" y="177.5"/>
      <point x="306.9" y="261.9"/>
      <point x="306.9" y="411.5" type="curve" smooth="yes"/>
      <point x="306.9" y="455.3"/>
      <point x="315.1" y="494.9"/>
      <point x="332.3" y="529.5" type="curve" smooth="yes"/>
      <point x="387.3" y="641.4"/>
      <point x="500.2" y="704.5"/>
      <point x="611.1" y="761.5" type="curve"/>
      <point x="844.2" y="530.6" type="line" smooth="yes"/>
      <point x="914.4" y="460.4"/>
      <point x="990.6" y="380.0"/>
      <point x="1058.8" y="314.8" type="curve" smooth="yes"/>
      <point x="1072.9" y="301.6"/>
      <point x="1081.2" y="294.5"/>
      <point x="1083.2" y="294.5" type="curve"/>
      <point x="984.5" y="198.8"/>
      <point x="869.6" y="116.4"/>
    </contour>
    <contour>
      <point x="642.7" y="932.4" type="curve"/>
      <point x="619.3" y="953.8"/>
      <point x="598.8" y="974.1"/>
      <point x="579.5" y="994.4" type="curve" smooth="yes"/>
      <point x="532.8" y="1044.3"/>
      <point x="487.0" y="1104.3"/>
      <point x="487.0" y="1196.9" type="curve" smooth="yes"/>
      <point x="487.0" y="1308.8"/>
      <point x="575.5" y="1361.7"/>
      <point x="687.4" y="1361.7" type="curve" smooth="yes"/>
      <point x="797.2" y="1361.7"/>
      <point x="886.9" y="1307.8"/>
      <point x="886.9" y="1196.9" type="curve" smooth="yes"/>
      <point x="886.9" y="1168.4"/>
      <point x="879.7" y="1142.0"/>
      <point x="865.5" y="1116.6" type="curve" smooth="yes"/>
      <point x="819.7" y="1033.2"/>
      <point x="729.2" y="978.1"/>
    </contour>
  </outline>
</glyph>
<glyph name="hyphen" format="1">
  <advance width="1254.6"/>
  <unicode hex="002D"/>
  <outline>
    <contour>
      <point x="221.4" y="639.0" type="line"/>
      <point x="1033.2" y="639.0" type="line"/>
      <point x="1033.2" y="784.5" type="line"/>
      <point x="221.4" y="784.5" type="line"/>
    </contour>
  </outline>
</glyph>
<glyph name="slash" format="1">
  <advance width="894.5"/>
  <unicode hex="002F"/>
  <outline>
    <contour>
      <point x="44.5" y="0.0" type="line"/>
      <point x="209.4" y="0.0" type="line"/>
      <point x="850.0" y="1455.2" type="line"/>
      <point x="681.1" y="1455.2" type="line"/>
    </contour>
  </outline>
</glyph>
<glyph name="two" format="1">
  <advance width="1252.8"/>
  <unicode hex="0032"/>
  <outline>
    <contour>
      <point x="149.6" y="0.0" type="line"/>
      <point x="1080.8" y="0.0" type="line"/>
      <point x="1080.8" y="150.5" type="line"/>
      <point x="364.5" y="150.5" type="line"/>
      <point x="456.3" y="235.1"/>
      <point x="596.3" y="359.8"/>
      <point x="688.1" y="450.7" type="curve" smooth="yes"/>
      <point x="839.2" y="598.7"/>
      <point x="1079.7" y="811.0"/>
      <point x="1079.7" y="1072.2" type="curve" smooth="yes"/>
      <point x="1079.7" y="1323.6"/>
      <point x="875.5" y="1481.6"/>
      <point x="626.7" y="1481.6" type="curve" smooth="yes"/>
      <point x="404.1" y="1481.6"/>
      <point x="241.6" y="1378.3"/>
      <point x="174.4" y="1212.2" type="curve"/>
      <point x="278.3" y="1111.2" type="line"/>
      <point x="336.9" y="1234.9"/>
      <point x="445.2" y="1322.8"/>
      <point x="615.6" y="1322.8" type="curve" smooth="yes"/>
      <point x="772.9" y="1322.8"/>
      <point x="895.8" y="1221.4"/>
      <point x="895.8" y="1065.1" type="curve" smooth="yes"/>
      <point x="895.8" y="884.1"/>
      <point x="733.4" y="727.3"/>
      <point x="624.3" y="611.9" type="curve" smooth="yes"/>
      <point x="488.4" y="467.9"/>
      <point x="290.9" y="286.5"/>
      <point x="149.6" y="151.5" type="curve"/>
    </contour>
  </outline>
</glyph>
<glyph name="four" format="1">
  <advance width="1252.8"/>
  <unicode hex="0034"/>
  <outline>
    <contour>
      <point x="771.0" y="0.0" type="line"/>
      <point x="950.9" y="0.0" type="line"/>
      <point x="950.9" y="348.1" type="line"/>
      <point x="1162.0" y="348.1" type="line"/>
      <point x="1162.0" y="486.7" type="line"/>
      <point x="950.9" y="486.7" type="line"/>
      <point x="950.9" y="1455.2" type="line"/>
      <point x="736.1" y="1455.2" type="line"/>
      <point x="147.2" y="478.8" type="line"/>
      <point x="147.2" y="348.1" type="line"/>
      <point x="771.0" y="348.1" type="line"/>
    </contour>
    <contour>
      <point x="324.1" y="486.7" type="line"/>
      <point x="676.5" y="1086.4" type="line"/>
      <point x="771.0" y="1255.0" type="line"/>
      <point x="771.0" y="486.7" type="line"/>
    </contour>
  </outline>
</glyph>
<glyph name="seven" format="1">
  <advance width="1252.8"/>
  <unicode hex="0037"/>
  <outline>
    <contour>
      <point x="348.9" y="0.0" type="line"/>
      <point x="544.2" y="0.0" type="line"/>
      <point x="1117.5" y="1351.7" type="line"/>
      <point x="1117.5" y="1451.7" type="line"/>
      <point x="154.0" y="1451.7" type="line"/>
      <point x="154.0" y="1301.3" type="line"/>
      <point x="915.4" y="1301.3" type="line"/>
    </contour>
  </outline>
</glyph>
<glyph name="equal" format="1">
  <advance width="1252.8"/>
  <unicode hex="003D"/>
  <outline>
    <contour>
      <point x="183.8" y="407.7" type="line"/>
      <point x="1070.0" y="407.7" type="line"/>
      <point x="1070.0" y="545.0" type="line"/>
      <point x="183.8" y="545.0" type="line"/>
    </contour>
    <contour>
      <point x="182.8" y="813.4" type="line"/>
      <point x="1069.1" y="813.4" type="line"/>
      <point x="1069.1" y="951.9" type="line"/>
      <point x="182.8" y="951.9" type="line"/>
    </contour>
  </outline>
</glyph>
<glyph name="greater" format="1">
  <advance width="1457.6"/>
  <unicode hex="003E"/>
  <outline>
    <contour>
      <point x="221.7" y="62.4" type="line"/>
      <point x="1231.3" y="509.2" type="line"/>
      <point x="1231.3" y="598.2" type="line"/>
      <point x="226.8" y="1082.0" type="line"/>
      <point x="226.8" y="930.0" type="line"/>
      <point x="1010.4" y="559.2" type="line"/>
      <point x="221.7" y="216.3" type="line"/>
    </contour>
  </outline>
</glyph>
<glyph name="at" format="1">
  <advance width="1902.3"/>
  <unicode hex="0040"/>
  <outline>
    <contour>
      <point x="975.6" y="-109.2" type="curve" smooth="yes"/>
      <point x="1231.0" y="-109.2"/>
      <point x="1437.7" y="-21.8"/>
      <point x="1570.4" y="112.8" type="curve"/>
      <point x="1489.4" y="189.7" type="line"/>
      <point x="1364.2" y="87.2"/>
      <point x="1194.2" y="17.0"/>
      <point x="983.2" y="17.0" type="curve" smooth="yes"/>
      <point x="589.0" y="17.0"/>
      <point x="293.6" y="279.3"/>
      <point x="293.6" y="677.2" type="curve" smooth="yes"/>
      <point x="293.6" y="1063.3"/>
      <point x="595.4" y="1350.8"/>
      <point x="975.9" y="1350.8" type="curve" smooth="yes"/>
      <point x="1326.6" y="1350.8"/>
      <point x="1610.4" y="1139.4"/>
      <point x="1610.4" y="795.4" type="curve" smooth="yes"/>
      <point x="1610.4" y="587.0"/>
      <point x="1490.4" y="353.4"/>
      <point x="1321.3" y="353.4" type="curve" smooth="yes"/>
      <point x="1262.2" y="353.4"/>
      <point x="1237.5" y="384.1"/>
      <point x="1237.5" y="440.5" type="curve" smooth="yes"/>
      <point x="1237.5" y="505.2"/>
      <point x="1292.4" y="714.4"/>
      <point x="1381.5" y="1106.2" type="curve"/>
      <point x="1231.7" y="1106.2" type="line"/>
      <point x="1211.6" y="1021.2" type="line"/>
      <point x="1169.7" y="1091.5"/>
      <point x="1085.8" y="1137.2"/>
      <point x="981.7" y="1137.2" type="curve" smooth="yes"/>
      <point x="732.9" y="1137.2"/>
      <point x="504.2" y="878.7"/>
      <point x="504.2" y="611.5" type="curve" smooth="yes"/>
      <point x="504.2" y="442.1"/>
      <point x="601.2" y="256.5"/>
      <point x="820.1" y="256.5" type="curve" smooth="yes"/>
      <point x="935.0" y="256.5"/>
      <point x="1020.6" y="312.5"/>
      <point x="1080.6" y="388.5" type="curve"/>
      <point x="1097.8" y="278.9"/>
      <point x="1176.5" y="227.6"/>
      <point x="1298.5" y="227.6" type="curve" smooth="yes"/>
      <point x="1560.4" y="227.6"/>
      <point x="1768.2" y="502.7"/>
      <point x="1768.2" y="790.4" type="curve" smooth="yes"/>
      <point x="1768.2" y="1208.8"/>
      <point x="1408.1" y="1475.1"/>
      <point x="980.6" y="1475.1" type="curve" smooth="yes"/>
      <point x="520.1" y="1475.1"/>
      <point x="134.1" y="1152.4"/>
      <point x="134.1" y="678.5" type="curve" smooth="yes"/>
      <point x="134.1" y="211.1"/>
      <point x="505.5" y="-109.2"/>
    </contour>
    <contour>
      <point x="841.5" y="388.3" type="curve" smooth="yes"/>
      <point x="729.6" y="388.3"/>
      <point x="669.3" y="466.4"/>
      <point x="669.3" y="584.2" type="curve" smooth="yes"/>
      <point x="669.3" y="781.1"/>
      <point x="805.3" y="1003.9"/>
      <point x="988.7" y="1003.9" type="curve" smooth="yes"/>
      <point x="1099.7" y="1003.9"/>
      <point x="1145.6" y="935.2"/>
      <point x="1145.6" y="821.0" type="curve" smooth="yes"/>
      <point x="1145.6" y="615.2"/>
      <point x="1020.9" y="388.3"/>
    </contour>
  </outline>
</glyph>
<glyph name="F" format="1">
  <advance width="1113.3"/>
  <unicode hex="0046"/>
  <outline>
    <contour>
      <point x="175.6" y="0.0" type="line"/>
      <point x="356.3" y="0.0" type="line"/>
      <point x="356.3" y="666.7" type="line"/>
      <point x="989.2" y="666.7" type="line"/>
      <point x="989.2" y="819.2" type="line"/>
      <point x="356.3" y="819.2" type="line"/>
      <point x="356.3" y="1302.0" type="line"/>
      <point x="1023.1" y="1302.0" type="line"/>
      <point x="1023.1" y="1455.2" type="line"/>
      <point x="175.6" y="1455.2" type="line"/>
    </contour>
  </outline>
</glyph>
<glyph name="J" format="1">
  <advance width="1055.1"/>
  <unicode hex="004A"/>
  <outline>
    <contour>
      <point x="45.1" y="-114.0" type="line"/>
      <point x="147.4" y="-164.5"/>
      <point x="250.8" y="-191.3"/>
      <point x="346.3" y="-191.3" type="curve" smooth="yes"/>
      <point x="580.5" y="-191.3"/>
      <point x="764.7" y="-31.6"/>
      <point x="764.7" y="331.7" type="curve" smooth="yes"/>
      <point x="764.7" y="1307.4" type="line"/>
      <point x="1036.5" y="1307.4" type="line"/>
      <point x="1036.5" y="1455.2" type="line"/>
      <point x="168.9" y="1455.2" type="line"/>
      <point x="168.9" y="1307.4" type="line"/>
      <point x="584.0" y="1307.4" type="line"/>
      <point x="584.0" y="329.8" type="line" smooth="yes"/>
      <point x="584.0" y="79.3"/>
      <point x="490.9" y="-32.9"/>
      <point x="335.9" y="-32.9" type="curve" smooth="yes"/>
      <point x="268.2" y="-32.9"/>
      <point x="188.2" y="-11.7"/>
      <point x="99.1" y="28.8" type="curve"/>
    </contour>
  </outline>
</glyph>
<glyph name="L" format="1">
  <advance width="1075.1"/>
  <unicode hex="004C"/>
  <outline>
    <contour>
      <point x="175.6" y="0.0" type="line"/>
      <point x="1049.9" y="0.0" type="line"/>
      <point x="1049.9" y="153.2" type="line"/>
      <point x="356.3" y="153.2" type="line"/>
      <point x="356.3" y="1455.2" type="line"/>
      <point x="175.6" y="1455.2" type="line"/>
    </contour>
  </outline>
</glyph>
<glyph name="S" format="1">
  <advance width="1247.44038785"/>
  <unicode hex="0053"/>
  <outline>
    <contour>
      <point x="670.117159165" y="-22.0" type="curve" smooth="yes"/>
      <point x="997.117159165" y="-22.0"/>
      <point x="1142.11715916" y="165.8"/>
      <point x="1142.61715916" y="394.6" type="curve" smooth="yes"/>
      <point x="1143.21715916" y="584.4"/>
      <point x="1057.61715916" y="712.1"/>
      <point x="682.417159165" y="821.2" type="curve" smooth="yes"/>
      <point x="379.617159165" y="909.3"/>
      <point x="330.517159165" y="983.1"/>
      <point x="335.917159165" y="1116.4" type="curve" smooth="yes"/>
      <point x="341.317159165" y="1253.9"/>
      <point x="447.017159165" y="1325.4"/>
      <point x="661.717159165" y="1325.4" type="curve" smooth="yes"/>
      <point x="785.317159165" y="1325.4"/>
      <point x="925.417159165" y="1281.0"/>
      <point x="1038.81715917" y="1211.3" type="curve"/>
      <point x="1092.61715916" y="1357.6" type="line"/>
      <point x="939.917159165" y="1453.0"/>
      <point x="781.417159165" y="1481.7"/>
      <point x="641.917159165" y="1481.7" type="curve" smooth="yes"/>
      <point x="341.317159165" y="1481.7"/>
      <point x="148.517159165" y="1332.7"/>
      <point x="144.917159165" y="1104.0" type="curve" smooth="yes"/>
      <point x="141.317159165" y="900.4"/>
      <point x="227.217159165" y="767.0"/>
      <point x="568.517159165" y="669.2" type="curve" smooth="yes"/>
      <point x="914.817159165" y="569.6"/>
      <point x="953.417159165" y="498.6"/>
      <point x="953.417159165" y="399.4" type="curve" smooth="yes"/>
      <point x="953.417159165" y="234.9"/>
      <point x="858.917159165" y="130.7"/>
      <point x="655.617159165" y="130.7" type="curve" smooth="yes"/>
      <point x="511.017159165" y="130.7"/>
      <point x="316.817159165" y="191.6"/>
      <point x="181.317159165" y="293.2" type="curve"/>
      <point x="150.217159165" y="122.8" type="line"/>
      <point x="284.717159165" y="34.8"/>
      <point x="491.417159165" y="-22.0"/>
    </contour>
  </outline>
</glyph>
<glyph name="T" format="1">
  <advance width="1167.3"/>
  <unicode hex="0054"/>
  <outline>
    <contour>
      <point x="492.0" y="0.0" type="line"/>
      <point x="672.6" y="0.0" type="line"/>
      <point x="672.6" y="1302.0" type="line"/>
      <point x="1140.1" y="1302.0" type="line"/>
      <point x="1140.1" y="1455.2" type="line"/>
      <point x="27.3" y="1455.2" type="line"/>
      <point x="27.3" y="1302.0" type="line"/>
      <point x="492.0" y="1302.0" type="line"/>
    </contour>
  </outline>
</glyph>
<glyph name="U" format="1">
  <advance width="1484.8"/>
  <unicode hex="0055"/>
  <outline>
    <contour>
      <point x="754.9" y="-22.0" type="curve" smooth="yes"/>
      <point x="1117.7" y="-22.0"/>
      <point x="1318.6" y="193.2"/>
      <point x="1320.4" y="551.7" type="curve"/>
      <point x="1320.4" y="1455.2" type="line"/>
      <point x="1140.7" y="1455.2" type="line"/>
      <point x="1140.7" y="539.6" type="line" smooth="yes"/>
      <point x="1140.7" y="284.6"/>
      <point x="1001.4" y="130.7"/>
      <point x="753.0" y="130.7" type="curve" smooth="yes"/>
      <point x="485.4" y="130.7"/>
      <point x="345.1" y="267.8"/>
      <point x="345.1" y="546.6" type="curve" smooth="yes"/>
      <point x="345.1" y="1455.2" type="line"/>
      <point x="164.5" y="1455.2" type="line"/>
      <point x="164.5" y="541.6" type="line" smooth="yes"/>
      <point x="164.5" y="162.1"/>
      <point x="370.9" y="-22.0"/>
    </contour>
  </outline>
</glyph>
<glyph name="V" format="1">
  <advance width="1341.8"/>
  <unicode hex="0056"/>
  <outline>
    <contour>
      <point x="579.0" y="0.9" type="line"/>
      <point x="774.2" y="0.9" type="line"/>
      <point x="1330.7" y="1455.2" type="line"/>
      <point x="1137.6" y="1455.2" type="line"/>
      <point x="728.8" y="354.5" type="line"/>
      <point x="674.9" y="197.9" type="line"/>
      <point x="622.0" y="355.5" type="line"/>
      <point x="208.7" y="1455.2" type="line"/>
      <point x="12.0" y="1455.2" type="line"/>
    </contour>
  </outline>
</glyph>
<glyph name="Z" format="1">
  <advance width="1228.9"/>
  <unicode hex="005A"/>
  <outline>
    <contour>
      <point x="92.8" y="0.0" type="line"/>
      <point x="1149.6" y="0.0" type="line"/>
      <point x="1149.6" y="153.2" type="line"/>
      <point x="328.0" y="153.2" type="line"/>
      <point x="1157.6" y="1358.0" type="line"/>
      <point x="1157.6" y="1455.2" type="line"/>
      <point x="124.7" y="1455.2" type="line"/>
      <point x="124.7" y="1302.0" type="line"/>
      <point x="919.1" y="1302.0" type="line"/>
      <point x="92.8" y="102.6" type="line"/>
    </contour>
  </outline>
</glyph>
<glyph name="bracketleft" format="1">
  <advance width="656.0"/>
  <unicode hex="005B"/>
  <outline>
    <contour>
      <point x="196.6" y="-254.5" type="line"/>
      <point x="563.0" y="-254.5" type="line"/>
      <point x="563.0" y="-131.8" type="line"/>
      <point x="369.2" y="-131.8" type="line"/>
      <point x="369.2" y="1331.9" type="line"/>
      <point x="562.1" y="1331.9" type="line"/>
      <point x="562.1" y="1454.7" type="line"/>
      <point x="196.6" y="1454.7" type="line"/>
    </contour>
  </outline>
</glyph>
<glyph name="a" format="1">
  <advance width="1213.1"/>
  <unicode hex="0061"/>
  <outline>
    <contour>
      <point x="508.8" y="-22.0" type="curve" smooth="yes"/>
      <point x="665.0" y="-22.0"/>
      <point x="814.2" y="53.2"/>
      <point x="880.8" y="165.4" type="curve"/>
      <point x="904.2" y="64.0"/>
      <point x="999.8" y="-4.4"/>
      <point x="1118.9" y="-4.4" type="curve"/>
      <point x="1157.4" y="144.9" type="line"/>
      <point x="1080.5" y="144.9"/>
      <point x="1028.1" y="203.7"/>
      <point x="1028.1" y="290.7" type="curve" smooth="yes"/>
      <point x="1028.1" y="956.4" type="line"/>
      <point x="946.5" y="1008.9"/>
      <point x="801.3" y="1044.8"/>
      <point x="666.9" y="1044.8" type="curve" smooth="yes"/>
      <point x="321.4" y="1044.8"/>
      <point x="90.4" y="800.7"/>
      <point x="90.4" y="436.7" type="curve" smooth="yes"/>
      <point x="90.4" y="162.2"/>
      <point x="257.5" y="-22.0"/>
    </contour>
    <contour>
      <point x="533.2" y="121.8" type="curve" smooth="yes"/>
      <point x="374.2" y="121.8"/>
      <point x="268.2" y="252.3"/>
      <point x="268.2" y="446.6" type="curve" smooth="yes"/>
      <point x="268.2" y="716.6"/>
      <point x="426.4" y="898.3"/>
      <point x="662.9" y="898.3" type="curve" smooth="yes"/>
      <point x="737.1" y="898.3"/>
      <point x="814.4" y="884.3"/>
      <point x="856.3" y="863.2" type="curve"/>
      <point x="856.3" y="449.6" type="line" smooth="yes"/>
      <point x="856.3" y="262.5"/>
      <point x="726.9" y="121.8"/>
    </contour>
  </outline>
</glyph>
<glyph name="d" format="1">
  <advance width="1235.2"/>
  <unicode hex="0064"/>
  <outline>
    <contour>
      <point x="563.3" y="-22.0" type="curve" smooth="yes"/>
      <point x="723.4" y="-22.0"/>
      <point x="859.4" y="51.3"/>
      <point x="918.7" y="173.8" type="curve"/>
      <point x="923.3" y="110.0"/>
      <point x="958.5" y="32.7"/>
      <point x="996.1" y="-13.1" type="curve"/>
      <point x="1165.1" y="11.9" type="line"/>
      <point x="1119.9" y="78.0"/>
      <point x="1078.3" y="169.9"/>
      <point x="1078.3" y="389.9" type="curve" smooth="yes"/>
      <point x="1078.3" y="1527.8" type="line"/>
      <point x="905.4" y="1508.5" type="line"/>
      <point x="905.4" y="918.2" type="line"/>
      <point x="799.3" y="1008.1"/>
      <point x="696.2" y="1044.8"/>
      <point x="567.2" y="1044.8" type="curve" smooth="yes"/>
      <point x="257.5" y="1044.8"/>
      <point x="90.6" y="809.5"/>
      <point x="90.6" y="499.5" type="curve" smooth="yes"/>
      <point x="90.6" y="185.6"/>
      <point x="279.4" y="-22.0"/>
    </contour>
    <contour>
      <point x="581.6" y="121.8" type="curve" smooth="yes"/>
      <point x="396.8" y="121.8"/>
      <point x="268.5" y="276.7"/>
      <point x="268.5" y="505.5" type="curve" smooth="yes"/>
      <point x="268.5" y="727.7"/>
      <point x="369.5" y="898.3"/>
      <point x="590.6" y="898.3" type="curve" smooth="yes"/>
      <point x="708.1" y="898.3"/>
      <point x="834.0" y="837.4"/>
      <point x="906.3" y="741.0" type="curve"/>
      <point x="906.3" y="532.4" type="line" smooth="yes"/>
      <point x="906.3" y="297.7"/>
      <point x="814.0" y="121.8"/>
    </contour>
  </outline>
</glyph>
<glyph name="i" format="1">
  <advance width="616.2"/>
  <unicode hex="0069"/>
  <outline>
    <contour>
      <point x="634.2" y="27.2" type="curve"/>
      <point x="610.4" y="152.7" type="line"/>
      <point x="473.9" y="103.7"/>
      <point x="339.0" y="82.9"/>
      <point x="339.0" y="274.2" type="curve" smooth="yes"/>
      <point x="339.0" y="1023.0" type="line"/>
      <point x="167.0" y="1023.0" type="line"/>
      <point x="167.0" y="263.5" type="line" smooth="yes"/>
      <point x="167.0" y="-19.3"/>
      <point x="402.4" y="-68.6"/>
    </contour>
    <contour>
      <point x="255.2" y="1238.1" type="curve" smooth="yes"/>
      <point x="313.7" y="1238.1"/>
      <point x="369.3" y="1274.1"/>
      <point x="369.3" y="1342.6" type="curve" smooth="yes"/>
      <point x="369.3" y="1411.1"/>
      <point x="314.6" y="1448.2"/>
      <point x="256.3" y="1448.2" type="curve" smooth="yes"/>
      <point x="197.7" y="1448.2"/>
      <point x="142.2" y="1412.2"/>
      <point x="142.2" y="1343.6" type="curve" smooth="yes"/>
      <point x="142.2" y="1275.0"/>
      <point x="196.8" y="1238.1"/>
    </contour>
  </outline>
</glyph>
<glyph name="j" format="1">
  <advance width="552.8"/>
  <unicode hex="006A"/>
  <outline>
    <contour>
      <point x="23.8" y="-466.5" type="curve" smooth="yes"/>
      <point x="234.1" y="-466.5"/>
      <point x="383.7" y="-324.9"/>
      <point x="383.7" y="26.7" type="curve" smooth="yes"/>
      <point x="383.7" y="1023.0" type="line"/>
      <point x="211.7" y="1023.0" type="line"/>
      <point x="211.7" y="20.6" type="line" smooth="yes"/>
      <point x="211.7" y="-243.9"/>
      <point x="120.7" y="-328.2"/>
      <point x="-0.2" y="-328.2" type="curve" smooth="yes"/>
      <point x="-38.5" y="-328.2"/>
      <point x="-82.7" y="-318.8"/>
      <point x="-129.6" y="-304.4" type="curve"/>
      <point x="-150.0" y="-439.0" type="line"/>
      <point x="-89.3" y="-456.7"/>
      <point x="-31.2" y="-466.5"/>
    </contour>
    <contour>
      <point x="297.3" y="1237.4" type="curve" smooth="yes"/>
      <point x="355.9" y="1237.4"/>
      <point x="411.5" y="1273.5"/>
      <point x="411.5" y="1341.9" type="curve" smooth="yes"/>
      <point x="411.5" y="1410.6"/>
      <point x="356.8" y="1447.7"/>
      <point x="298.4" y="1447.7" type="curve" smooth="yes"/>
      <point x="239.9" y="1447.7"/>
      <point x="184.3" y="1411.5"/>
      <point x="184.3" y="1342.9" type="curve" smooth="yes"/>
      <point x="184.3" y="1274.5"/>
      <point x="239.0" y="1237.4"/>
    </contour>
  </outline>
</glyph>
<glyph name="s" format="1">
  <advance width="903.6"/>
  <unicode hex="0073"/>
  <outline>
    <contour>
      <point x="468.0" y="-22.0" type="curve" smooth="yes"/>
      <point x="681.7" y="-22.0"/>
      <point x="814.0" y="99.8"/>
      <point x="817.6" y="277.9" type="curve" smooth="yes"/>
      <point x="821.2" y="437.5"/>
      <point x="691.425" y="514.2"/>
      <point x="546.05" y="576.9875" type="curve" smooth="yes"/>
      <point x="409.475" y="636.975"/>
      <point x="281.6" y="681.25"/>
      <point x="281.6" y="772.1" type="curve" smooth="yes"/>
      <point x="281.6" y="853.0"/>
      <point x="351.9" y="899.5"/>
      <point x="466.8" y="899.5" type="curve" smooth="yes"/>
      <point x="553.8" y="899.5"/>
      <point x="656.1" y="869.1"/>
      <point x="735.9" y="826.6" type="curve"/>
      <point x="779.7" y="964.2" type="line"/>
      <point x="701.4" y="1005.3"/>
      <point x="591.6" y="1044.8"/>
      <point x="454.0" y="1044.8" type="curve" smooth="yes"/>
      <point x="240.4" y="1044.8"/>
      <point x="115.4" y="931.5"/>
      <point x="112.7" y="765.7" type="curve" smooth="yes"/>
      <point x="110.0" y="607.3"/>
      <point x="238.525" y="531.475"/>
      <point x="383.325" y="468.925" type="curve" smooth="yes"/>
      <point x="523.325" y="407.775"/>
      <point x="651.5" y="363.7"/>
      <point x="651.5" y="261.5" type="curve" smooth="yes"/>
      <point x="651.5" y="163.1"/>
      <point x="567.1" y="121.2"/>
      <point x="457.2" y="121.2" type="curve" smooth="yes"/>
      <point x="352.2" y="121.2"/>
      <point x="270.1" y="146.6"/>
      <point x="161.3" y="201.5" type="curve"/>
      <point x="111.1" y="63.4" type="line"/>
      <point x="183.8" y="23.2"/>
      <point x="311.7" y="-22.0"/>
    </contour>
  </outline>
</glyph>
<glyph name="u" format="1">
  <advance width="1210.3"/>
  <unicode hex="0075"/>
  <outline>
    <contour>
      <point x="523.8" y="-22.0" type="curve" smooth="yes"/>
      <point x="682.5" y="-22.0"/>
      <point x="801.7" y="40.7"/>
      <point x="876.9" y="165.0" type="curve"/>
      <point x="890.0" y="46.5"/>
      <point x="987.5" y="-30.1"/>
      <point x="1145.0" y="-3.1" type="curve"/>
      <point x="1162.9" y="140.6" type="line"/>
      <point x="1072.2" y="122.6"/>
      <point x="1022.7" y="161.1"/>
      <point x="1022.7" y="304.1" type="curve" smooth="yes"/>
      <point x="1022.7" y="1023.0" type="line"/>
      <point x="850.3" y="1023.0" type="line"/>
      <point x="850.3" y="429.3" type="line" smooth="yes"/>
      <point x="850.3" y="234.7"/>
      <point x="715.8" y="121.4"/>
      <point x="550.8" y="121.4" type="curve" smooth="yes"/>
      <point x="429.9" y="121.4"/>
      <point x="314.9" y="177.6"/>
      <point x="319.7" y="366.6" type="curve" smooth="yes"/>
      <point x="325.6" y="593.2" type="line" smooth="yes"/>
      <point x="334.6" y="935.3"/>
      <point x="268.8" y="1023.0"/>
      <point x="268.8" y="1023.0" type="curve"/>
      <point x="95.4" y="996.9" type="line"/>
      <point x="95.4" y="996.9"/>
      <point x="161.2" y="895.3"/>
      <point x="152.2" y="580.2" type="curve" smooth="yes"/>
      <point x="146.4" y="363.9" type="line" smooth="yes"/>
      <point x="138.5" y="84.9"/>
      <point x="325.6" y="-22.0"/>
    </contour>
  </outline>
</glyph>
<glyph name="asciitilde" format="1">
  <advance width="1485.3"/>
  <unicode hex="007E"/>
  <outline>
    <contour>
      <point x="311.0" y="414.3" type="line"/>
      <point x="332.4" y="505.9"/>
      <point x="392.3" y="603.5"/>
      <point x="504.3" y="603.5" type="curve" smooth="yes"/>
      <point x="525.6" y="603.5"/>
      <point x="549.1" y="599.4"/>
      <point x="575.5" y="591.3" type="curve" smooth="yes"/>
      <point x="663.0" y="563.8"/>
      <point x="745.4" y="518.0"/>
      <point x="825.8" y="482.5" type="curve" smooth="yes"/>
      <point x="868.5" y="463.2"/>
      <point x="921.4" y="439.8"/>
      <point x="974.3" y="439.8" type="curve" smooth="yes"/>
      <point x="1015.0" y="439.8"/>
      <point x="1051.6" y="445.9"/>
      <point x="1085.2" y="460.1" type="curve" smooth="yes"/>
      <point x="1189.0" y="503.9"/>
      <point x="1251.1" y="598.4"/>
      <point x="1279.6" y="718.5" type="curve"/>
      <point x="1152.4" y="758.2" type="line"/>
      <point x="1133.1" y="674.8"/>
      <point x="1077.1" y="577.1"/>
      <point x="975.4" y="577.1" type="curve" smooth="yes"/>
      <point x="959.1" y="577.1"/>
      <point x="939.8" y="581.2"/>
      <point x="917.4" y="589.3" type="curve" smooth="yes"/>
      <point x="835.0" y="619.8"/>
      <point x="753.6" y="665.5"/>
      <point x="671.2" y="698.1" type="curve" smooth="yes"/>
      <point x="621.3" y="717.4"/>
      <point x="563.3" y="739.9"/>
      <point x="501.3" y="739.9" type="curve" smooth="yes"/>
      <point x="458.5" y="739.9"/>
      <point x="419.9" y="732.8"/>
      <point x="385.3" y="717.5" type="curve" smooth="yes"/>
      <point x="286.6" y="674.8"/>
      <point x="218.4" y="585.2"/>
      <point x="194.0" y="470.2" type="curve"/>
    </contour>
  </outline>
</glyph>
<glyph name="sterling" format="1">
  <advance width="1279.5"/>
  <unicode hex="00A3"/>
  <outline>
    <contour>
      <point x="123.7" y="0.0" type="line"/>
      <point x="1106.5" y="0.0" type="line"/>
      <point x="1106.5" y="143.5" type="line"/>
      <point x="383.1" y="143.5" type="line"/>
      <point x="399.4" y="156.7"/>
      <point x="413.7" y="173.9"/>
      <point x="424.9" y="197.4" type="curve" smooth="yes"/>
      <point x="480.8" y="310.4"/>
      <point x="482.8" y="484.2"/>
      <point x="482.8" y="652.1" type="curve" smooth="yes"/>
      <point x="482.8" y="702.0" type="line"/>
      <point x="818.6" y="702.0" type="line"/>
      <point x="818.6" y="846.5" type="line"/>
      <point x="480.8" y="846.5" type="line"/>
      <point x="477.8" y="963.5" type="line"/>
      <point x="477.8" y="1176.1"/>
      <point x="543.9" y="1329.8"/>
      <point x="755.5" y="1329.8" type="curve" smooth="yes"/>
      <point x="868.5" y="1329.8"/>
      <point x="963.0" y="1302.3"/>
      <point x="1034.2" y="1258.6" type="curve"/>
      <point x="1087.2" y="1380.7" type="line"/>
      <point x="1008.8" y="1442.7"/>
      <point x="898.0" y="1473.2"/>
      <point x="752.4" y="1473.2" type="curve" smooth="yes"/>
      <point x="393.2" y="1473.2"/>
      <point x="305.8" y="1232.0"/>
      <point x="305.8" y="875.9" type="curve" smooth="yes"/>
      <point x="305.8" y="865.8"/>
      <point x="306.8" y="856.6"/>
      <point x="307.9" y="846.5" type="curve"/>
      <point x="122.6" y="846.5" type="line"/>
      <point x="122.6" y="702.0" type="line"/>
      <point x="308.8" y="702.0" type="line"/>
      <point x="308.8" y="447.7" type="line" smooth="yes"/>
      <point x="308.8" y="276.7"/>
      <point x="228.4" y="202.5"/>
      <point x="122.6" y="140.5" type="curve"/>
    </contour>
  </outline>
</glyph>
<glyph name="currency" format="1">
  <advance width="1239.8"/>
  <unicode hex="00A4"/>
  <outline>
    <contour>
      <point x="155.8" y="209.8" type="line"/>
      <point x="320.5" y="380.7" type="line"/>
      <point x="389.7" y="324.7"/>
      <point x="477.3" y="290.2"/>
      <point x="571.9" y="290.2" type="curve" smooth="yes"/>
      <point x="673.6" y="290.2"/>
      <point x="767.1" y="326.9"/>
      <point x="837.3" y="388.9" type="curve"/>
      <point x="1007.4" y="225.1" type="line"/>
      <point x="1045.0" y="261.7" type="line"/>
      <point x="874.1" y="426.5" type="line"/>
      <point x="932.1" y="492.7"/>
      <point x="967.6" y="578.2"/>
      <point x="969.7" y="673.8" type="curve" smooth="yes"/>
      <point x="971.8" y="777.5"/>
      <point x="934.0" y="872.2"/>
      <point x="868.9" y="944.4" type="curve"/>
      <point x="1029.8" y="1111.3" type="line"/>
      <point x="989.0" y="1150.9" type="line"/>
      <point x="828.3" y="984.0" type="line"/>
      <point x="761.2" y="1040.9"/>
      <point x="675.7" y="1075.6"/>
      <point x="582.1" y="1077.7" type="curve" smooth="yes"/>
      <point x="479.4" y="1079.8"/>
      <point x="381.7" y="1040.1"/>
      <point x="308.4" y="974.9" type="curve"/>
      <point x="143.5" y="1134.6" type="line"/>
      <point x="103.9" y="1095.0" type="line"/>
      <point x="269.7" y="935.2" type="line"/>
      <point x="210.7" y="866.1"/>
      <point x="174.0" y="778.6"/>
      <point x="174.0" y="684.0" type="curve" smooth="yes"/>
      <point x="174.0" y="580.3"/>
      <point x="215.7" y="486.5"/>
      <point x="281.9" y="416.3" type="curve"/>
      <point x="119.2" y="247.5" type="line"/>
    </contour>
    <contour>
      <point x="569.8" y="368.5" type="curve" smooth="yes"/>
      <point x="397.9" y="368.5"/>
      <point x="263.7" y="508.9"/>
      <point x="263.7" y="681.0" type="curve" smooth="yes"/>
      <point x="263.7" y="852.9"/>
      <point x="406.0" y="997.3"/>
      <point x="578.0" y="993.2" type="curve" smooth="yes"/>
      <point x="749.0" y="989.2"/>
      <point x="880.1" y="845.7"/>
      <point x="876.1" y="673.8" type="curve" smooth="yes"/>
      <point x="872.0" y="501.8"/>
      <point x="741.8" y="368.5"/>
    </contour>
  </outline>
</glyph>
<glyph name="dieresis" format="1">
  <advance width="799.5"/>
  <unicode hex="00A8"/>
  <outline>
    <contour>
      <point x="138.9" y="1183.4" type="line"/>
      <point x="312.8" y="1183.4" type="line"/>
      <point x="312.8" y="1356.2" type="line"/>
      <point x="138.9" y="1356.2" type="line"/>
    </contour>
    <contour>
      <point x="482.2" y="1183.4" type="line"/>
      <point x="656.1" y="1183.4" type="line"/>
      <point x="656.1" y="1356.2" type="line"/>
      <point x="482.2" y="1356.2" type="line"/>
    </contour>
  </outline>
</glyph>
<glyph name="registered" format="1">
  <advance width="1864.4"/>
  <unicode hex="00AE"/>
  <outline>
    <contour>
      <point x="609.8" y="267.8" type="line"/>
      <point x="760.4" y="267.8" type="line"/>
      <point x="760.4" y="665.6" type="line"/>
      <point x="899.7" y="665.6" type="line"/>
      <point x="961.8" y="625.9"/>
      <point x="1006.5" y="556.7"/>
      <point x="1049.2" y="483.4" type="curve" smooth="yes"/>
      <point x="1174.4" y="267.8" type="line"/>
      <point x="1345.3" y="267.8" type="line"/>
      <point x="1311.8" y="322.8"/>
      <point x="1282.3" y="371.5"/>
      <point x="1254.8" y="415.3" type="curve" smooth="yes"/>
      <point x="1192.8" y="514.0"/>
      <point x="1134.7" y="609.6"/>
      <point x="1056.4" y="682.9" type="curve"/>
      <point x="1204.9" y="702.2"/>
      <point x="1326.0" y="778.5"/>
      <point x="1326.0" y="941.3" type="curve" smooth="yes"/>
      <point x="1326.0" y="1025.7"/>
      <point x="1290.4" y="1090.8"/>
      <point x="1218.2" y="1135.6" type="curve" smooth="yes"/>
      <point x="1146.0" y="1180.4"/>
      <point x="1036.1" y="1202.7"/>
      <point x="887.5" y="1202.7" type="curve" smooth="yes"/>
      <point x="609.8" y="1202.7" type="line"/>
    </contour>
    <contour>
      <point x="932.2" y="-42.6" type="curve" smooth="yes"/>
      <point x="1185.5" y="-42.6"/>
      <point x="1373.8" y="58.1"/>
      <point x="1508.1" y="185.3" type="curve" smooth="yes"/>
      <point x="1638.3" y="308.4"/>
      <point x="1749.2" y="483.4"/>
      <point x="1749.2" y="727.6" type="curve" smooth="yes"/>
      <point x="1749.2" y="797.8"/>
      <point x="1739.0" y="865.0"/>
      <point x="1719.7" y="930.1" type="curve" smooth="yes"/>
      <point x="1678.0" y="1067.5"/>
      <point x="1602.7" y="1180.4"/>
      <point x="1508.1" y="1269.9" type="curve" smooth="yes"/>
      <point x="1372.8" y="1397.1"/>
      <point x="1182.6" y="1498.9"/>
      <point x="926.2" y="1498.9" type="curve" smooth="yes"/>
      <point x="672.9" y="1498.9"/>
      <point x="484.7" y="1399.1"/>
      <point x="349.3" y="1271.9" type="curve" smooth="yes"/>
      <point x="219.1" y="1148.8"/>
      <point x="107.1" y="973.8"/>
      <point x="107.1" y="728.6" type="curve" smooth="yes"/>
      <point x="107.1" y="658.4"/>
      <point x="117.3" y="590.3"/>
      <point x="136.6" y="525.2" type="curve" smooth="yes"/>
      <point x="178.3" y="387.9"/>
      <point x="252.6" y="274.8"/>
      <point x="348.2" y="185.3" type="curve" smooth="yes"/>
      <point x="483.6" y="58.1"/>
      <point x="675.8" y="-42.6"/>
    </contour>
    <contour>
      <point x="931.3" y="76.5" type="curve" smooth="yes"/>
      <point x="719.7" y="76.5"/>
      <point x="549.8" y="156.8"/>
      <point x="435.8" y="264.7" type="curve" smooth="yes"/>
      <point x="324.9" y="369.4"/>
      <point x="236.3" y="526.1"/>
      <point x="236.3" y="729.7" type="curve" smooth="yes"/>
      <point x="236.3" y="932.1"/>
      <point x="324.9" y="1087.8"/>
      <point x="435.8" y="1192.6" type="curve" smooth="yes"/>
      <point x="548.8" y="1299.4"/>
      <point x="717.5" y="1379.8"/>
      <point x="927.2" y="1379.8" type="curve" smooth="yes"/>
      <point x="1137.8" y="1379.8"/>
      <point x="1307.7" y="1297.5"/>
      <point x="1420.7" y="1190.6" type="curve" smooth="yes"/>
      <point x="1531.5" y="1085.9"/>
      <point x="1620.0" y="930.1"/>
      <point x="1620.0" y="726.7" type="curve" smooth="yes"/>
      <point x="1620.0" y="518.1"/>
      <point x="1533.5" y="368.5"/>
      <point x="1422.6" y="264.7" type="curve" smooth="yes"/>
      <point x="1308.7" y="157.8"/>
      <point x="1148.0" y="76.5"/>
    </contour>
    <contour>
      <point x="758.3" y="786.6" type="line"/>
      <point x="757.3" y="1080.6" type="line"/>
      <point x="883.5" y="1080.6" type="line" smooth="yes"/>
      <point x="1039.2" y="1080.6"/>
      <point x="1168.3" y="1079.6"/>
      <point x="1168.3" y="926.0" type="curve" smooth="yes"/>
      <point x="1168.3" y="787.7"/>
      <point x="1025.9" y="786.6"/>
      <point x="885.5" y="786.6" type="curve" smooth="yes"/>
    </contour>
  </outline>
</glyph>
<glyph name="degree" format="1">
  <advance width="908.2"/>
  <unicode hex="00B0"/>
  <outline>
    <contour>
      <point x="426.8" y="1038.2" type="curve" smooth="yes"/>
      <point x="399.4" y="1038.2"/>
      <point x="372.9" y="1043.2"/>
      <point x="349.4" y="1052.3" type="curve" smooth="yes"/>
      <point x="285.3" y="1077.7"/>
      <point x="229.5" y="1132.7"/>
      <point x="229.5" y="1221.2" type="curve" smooth="yes"/>
      <point x="229.5" y="1246.6"/>
      <point x="235.6" y="1271.1"/>
      <point x="245.7" y="1293.5" type="curve" smooth="yes"/>
      <point x="275.2" y="1354.6"/>
      <point x="338.4" y="1401.3"/>
      <point x="426.8" y="1401.3" type="curve" smooth="yes"/>
      <point x="453.3" y="1401.3"/>
      <point x="477.7" y="1396.2"/>
      <point x="502.1" y="1387.1" type="curve" smooth="yes"/>
      <point x="566.2" y="1362.7"/>
      <point x="624.2" y="1308.7"/>
      <point x="624.2" y="1221.2" type="curve" smooth="yes"/>
      <point x="624.2" y="1195.8"/>
      <point x="619.1" y="1171.4"/>
      <point x="608.9" y="1149.0" type="curve" smooth="yes"/>
      <point x="580.4" y="1087.0"/>
      <point x="516.3" y="1038.2"/>
    </contour>
    <contour>
      <point x="426.8" y="920.1" type="curve" smooth="yes"/>
      <point x="470.6" y="920.1"/>
      <point x="511.2" y="927.2"/>
      <point x="550.9" y="943.5" type="curve" smooth="yes"/>
      <point x="654.7" y="985.2"/>
      <point x="751.4" y="1077.7"/>
      <point x="751.4" y="1220.2" type="curve" smooth="yes"/>
      <point x="751.4" y="1261.9"/>
      <point x="743.3" y="1299.6"/>
      <point x="726.0" y="1336.3" type="curve" smooth="yes"/>
      <point x="678.2" y="1436.9"/>
      <point x="573.3" y="1519.3"/>
      <point x="426.8" y="1519.3" type="curve" smooth="yes"/>
      <point x="383.1" y="1519.3"/>
      <point x="341.3" y="1511.2"/>
      <point x="301.6" y="1496.0" type="curve" smooth="yes"/>
      <point x="197.8" y="1454.3"/>
      <point x="102.3" y="1361.6"/>
      <point x="102.3" y="1220.2" type="curve" smooth="yes"/>
      <point x="102.3" y="1178.5"/>
      <point x="110.4" y="1140.8"/>
      <point x="127.7" y="1104.2" type="curve" smooth="yes"/>
      <point x="175.5" y="1003.5"/>
      <point x="281.3" y="920.1"/>
    </contour>
  </outline>
</glyph>
<glyph name="uni00B2" format="1">
  <advance width="1280.5"/>
  <unicode hex="00B2"/>
  <outline>
    <contour>
      <point x="304.6" y="650.0" type="line"/>
      <point x="860.1" y="650.0" type="line"/>
      <point x="860.1" y="770.0" type="line"/>
      <point x="489.7" y="770.0" type="line"/>
      <point x="583.3" y="851.4"/>
      <point x="678.0" y="929.7"/>
      <point x="753.3" y="1020.3" type="curve" smooth="yes"/>
      <point x="808.2" y="1086.5"/>
      <point x="861.1" y="1162.7"/>
      <point x="861.1" y="1269.5" type="curve" smooth="yes"/>
      <point x="861.1" y="1305.1"/>
      <point x="853.9" y="1336.6"/>
      <point x="840.7" y="1365.2" type="curve" smooth="yes"/>
      <point x="801.0" y="1447.6"/>
      <point x="713.6" y="1500.5"/>
      <point x="593.5" y="1500.5" type="curve" smooth="yes"/>
      <point x="453.1" y="1500.5"/>
      <point x="356.4" y="1429.4"/>
      <point x="312.7" y="1327.6" type="curve"/>
      <point x="399.2" y="1248.2" type="line"/>
      <point x="432.8" y="1319.5"/>
      <point x="490.7" y="1381.5"/>
      <point x="587.4" y="1381.5" type="curve" smooth="yes"/>
      <point x="667.8" y="1381.5"/>
      <point x="729.9" y="1343.9"/>
      <point x="729.9" y="1267.6" type="curve" smooth="yes"/>
      <point x="729.9" y="1239.1"/>
      <point x="719.7" y="1207.6"/>
      <point x="698.3" y="1173.0" type="curve" smooth="yes"/>
      <point x="676.9" y="1138.4"/>
      <point x="648.4" y="1100.7"/>
      <point x="610.8" y="1059.0" type="curve" smooth="yes"/>
      <point x="520.2" y="959.3"/>
      <point x="412.5" y="861.6"/>
      <point x="304.6" y="762.9" type="curve"/>
    </contour>
  </outline>
</glyph>
<glyph name="periodcentered" format="1">
  <advance width="477.7"/>
  <unicode hex="00B7"/>
  <outline>
    <contour>
      <point x="81.8" y="552.1" type="line"/>
      <point x="302.6" y="552.1" type="line"/>
      <point x="302.6" y="765.8" type="line"/>
      <point x="81.8" y="765.8" type="line"/>
    </contour>
  </outline>
</glyph>
<glyph name="cedilla" format="1">
  <advance width="569.2"/>
  <unicode hex="00B8"/>
  <outline>
    <contour>
      <point x="234.0" y="-426.1" type="curve" smooth="yes"/>
      <point x="357.2" y="-426.1"/>
      <point x="479.2" y="-388.5"/>
      <point x="479.2" y="-266.4" type="curve" smooth="yes"/>
      <point x="479.2" y="-156.6"/>
      <point x="381.5" y="-119.9"/>
      <point x="275.7" y="-114.8" type="curve"/>
      <point x="266.6" y="-114.8" type="line"/>
      <point x="284.8" y="-5.9" type="line"/>
      <point x="186.2" y="-5.9" type="line"/>
      <point x="152.6" y="-199.2" type="line"/>
      <point x="185.2" y="-197.2" type="line" smooth="yes"/>
      <point x="196.4" y="-196.1"/>
      <point x="213.7" y="-194.2"/>
      <point x="222.8" y="-194.2" type="curve" smooth="yes"/>
      <point x="283.9" y="-194.2"/>
      <point x="333.7" y="-208.4"/>
      <point x="333.7" y="-268.5" type="curve" smooth="yes"/>
      <point x="333.7" y="-325.4"/>
      <point x="284.8" y="-341.7"/>
      <point x="217.7" y="-341.7" type="curve" smooth="yes"/>
      <point x="162.8" y="-341.7"/>
      <point x="114.9" y="-329.5"/>
      <point x="64.1" y="-317.3" type="curve"/>
      <point x="55.9" y="-403.8" type="line"/>
      <point x="110.9" y="-415.0"/>
      <point x="172.9" y="-426.1"/>
    </contour>
  </outline>
</glyph>
<glyph name="guillemotright" format="1">
  <advance width="1243.9"/>
  <unicode hex="00BB"/>
  <outline>
    <contour>
      <point x="177.6" y="184.0" type="line"/>
      <point x="340.4" y="184.0" type="line"/>
      <point x="620.2" y="561.5" type="line"/>
      <point x="345.4" y="940.0" type="line"/>
      <point x="184.6" y="940.0" type="line"/>
      <point x="447.2" y="561.5" type="line"/>
    </contour>
    <contour>
      <point x="582.5" y="184.0" type="line"/>
      <point x="742.3" y="184.0" type="line"/>
      <point x="1023.1" y="561.5" type="line"/>
      <point x="748.3" y="940.0" type="line"/>
      <point x="589.6" y="940.0" type="line"/>
      <point x="848.1" y="561.5" type="line"/>
    </contour>
  </outline>
</glyph>
<glyph name="onequarter" format="1">
  <advance width="2641.9"/>
  <unicode hex="00BC"/>
  <outline>
    <contour>
      <point x="-362.6" y="0.0" type="line"/>
      <point x="-209.0" y="0.0" type="line"/>
      <point x="597.8" y="1284.0" type="line"/>
      <point x="597.8" y="1224.0" type="line"/>
      <point x="648.6" y="1243.3"/>
      <point x="707.6" y="1269.7"/>
      <point x="752.4" y="1293.1" type="curve"/>
      <point x="752.4" y="1188.4" type="line" smooth="yes"/>
      <point x="752.4" y="1135.5"/>
      <point x="753.4" y="1085.6"/>
      <point x="753.4" y="1025.5" type="curve" smooth="yes"/>
      <point x="753.4" y="735.6" type="line"/>
      <point x="629.3" y="735.6" type="line"/>
      <point x="629.3" y="614.6" type="line"/>
      <point x="1000.7" y="614.6" type="line"/>
      <point x="1000.7" y="732.5" type="line"/>
      <point x="876.6" y="732.5" type="line"/>
      <point x="876.6" y="1451.8" type="line"/>
      <point x="769.7" y="1436.6" type="line"/>
      <point x="733.2" y="1415.1"/>
      <point x="697.6" y="1394.9"/>
      <point x="656.9" y="1377.6" type="curve"/>
      <point x="709.7" y="1461.0" type="line"/>
      <point x="558.1" y="1461.0" type="line"/>
    </contour>
    <contour>
      <point x="1927.5" y="625.7" type="line"/>
      <point x="2049.6" y="625.7" type="line"/>
      <point x="2049.6" y="817.0" type="line"/>
      <point x="2172.7" y="817.0" type="line"/>
      <point x="2162.6" y="925.9" type="line"/>
      <point x="2051.7" y="925.9" type="line"/>
      <point x="2051.7" y="1436.6" type="line"/>
      <point x="1915.4" y="1436.6" type="line"/>
      <point x="1543.0" y="909.6" type="line"/>
      <point x="1543.0" y="817.0" type="line"/>
      <point x="1927.5" y="817.0" type="line"/>
    </contour>
    <contour>
      <point x="1684.4" y="925.9" type="line"/>
      <point x="1927.5" y="1265.7" type="line"/>
      <point x="1927.5" y="925.9" type="line"/>
    </contour>
  </outline>
</glyph>
<glyph name="threequarters" format="1">
  <advance width="2641.9"/>
  <unicode hex="00BE"/>
  <outline>
    <contour>
      <point x="-362.6" y="0.0" type="line"/>
      <point x="-209.0" y="0.0" type="line"/>
      <point x="620.2" y="1319.5" type="line"/>
      <point x="652.8" y="1265.7" type="line"/>
      <point x="702.6" y="1306.3"/>
      <point x="764.7" y="1345.0"/>
      <point x="848.1" y="1345.0" type="curve" smooth="yes"/>
      <point x="930.5" y="1345.0"/>
      <point x="991.5" y="1313.5"/>
      <point x="991.5" y="1231.1" type="curve" smooth="yes"/>
      <point x="991.5" y="1129.3"/>
      <point x="893.9" y="1108.0"/>
      <point x="791.1" y="1108.0" type="curve" smooth="yes"/>
      <point x="741.2" y="1108.0" type="line"/>
      <point x="741.2" y="987.0" type="line"/>
      <point x="767.7" y="987.0" type="line" smooth="yes"/>
      <point x="775.8" y="987.0"/>
      <point x="791.9" y="987.9"/>
      <point x="798.2" y="987.9" type="curve" smooth="yes"/>
      <point x="913.1" y="987.9"/>
      <point x="1016.9" y="964.6"/>
      <point x="1016.9" y="851.6" type="curve" smooth="yes"/>
      <point x="1016.9" y="758.0"/>
      <point x="934.6" y="713.2"/>
      <point x="839.0" y="713.2" type="curve" smooth="yes"/>
      <point x="772.8" y="713.2"/>
      <point x="711.7" y="739.7"/>
      <point x="654.7" y="792.5" type="curve"/>
      <point x="593.7" y="694.9" type="line"/>
      <point x="651.7" y="636.9"/>
      <point x="735.1" y="596.2"/>
      <point x="844.0" y="596.2" type="curve" smooth="yes"/>
      <point x="884.7" y="596.2"/>
      <point x="924.4" y="602.3"/>
      <point x="961.0" y="613.5" type="curve" smooth="yes"/>
      <point x="1060.7" y="645.0"/>
      <point x="1148.2" y="720.4"/>
      <point x="1148.2" y="848.6" type="curve" smooth="yes"/>
      <point x="1148.2" y="953.3"/>
      <point x="1093.3" y="1016.4"/>
      <point x="1018.0" y="1050.0" type="curve"/>
      <point x="1081.0" y="1083.6"/>
      <point x="1126.9" y="1143.6"/>
      <point x="1126.9" y="1234.1" type="curve" smooth="yes"/>
      <point x="1126.9" y="1271.8"/>
      <point x="1118.7" y="1304.4"/>
      <point x="1103.4" y="1332.9" type="curve" smooth="yes"/>
      <point x="1060.7" y="1412.2"/>
      <point x="971.2" y="1466.1"/>
      <point x="850.1" y="1466.1" type="curve" smooth="yes"/>
      <point x="792.1" y="1466.1"/>
      <point x="736.2" y="1451.8"/>
      <point x="689.4" y="1429.4" type="curve"/>
      <point x="709.7" y="1461.0" type="line"/>
      <point x="558.1" y="1461.0" type="line"/>
    </contour>
    <contour>
      <point x="1927.5" y="625.7" type="line"/>
      <point x="2049.6" y="625.7" type="line"/>
      <point x="2049.6" y="817.0" type="line"/>
      <point x="2172.7" y="817.0" type="line"/>
      <point x="2162.6" y="925.9" type="line"/>
      <point x="2051.7" y="925.9" type="line"/>
      <point x="2051.7" y="1436.6" type="line"/>
      <point x="1915.4" y="1436.6" type="line"/>
      <point x="1543.0" y="909.6" type="line"/>
      <point x="1543.0" y="817.0" type="line"/>
      <point x="1927.5" y="817.0" type="line"/>
    </contour>
    <contour>
      <point x="1684.4" y="925.9" type="line"/>
      <point x="1927.5" y="1265.7" type="line"/>
      <point x="1927.5" y="925.9" type="line"/>
    </contour>
  </outline>
</glyph>
<glyph name="multiply" format="1">
  <advance width="1568.9"/>
  <unicode hex="00D7"/>
  <outline>
    <contour>
      <point x="451.3" y="165.7" type="line"/>
      <point x="753.5" y="466.9" type="line"/>
      <point x="1054.7" y="165.7" type="line"/>
      <point x="1160.5" y="271.5" type="line"/>
      <point x="858.3" y="572.7" type="line"/>
      <point x="1160.5" y="873.9" type="line"/>
      <point x="1054.7" y="979.7" type="line"/>
      <point x="753.5" y="677.5" type="line"/>
      <point x="451.3" y="979.7" type="line"/>
      <point x="346.5" y="874.9" type="line"/>
      <point x="647.7" y="572.7" type="line"/>
      <point x="346.5" y="270.5" type="line"/>
    </contour>
  </outline>
</glyph>
<glyph name="Thorn" format="1">
  <advance width="1370.9"/>
  <unicode hex="00DE"/>
  <outline>
    <contour>
      <point x="218.5" y="0.0" type="line"/>
      <point x="393.5" y="0.0" type="line"/>
      <point x="393.5" y="450.7" type="line"/>
      <point x="619.3" y="450.7" type="line" smooth="yes"/>
      <point x="789.2" y="450.7"/>
      <point x="940.8" y="488.4"/>
      <point x="1047.7" y="555.5" type="curve" smooth="yes"/>
      <point x="1152.4" y="621.7"/>
      <point x="1232.8" y="726.5"/>
      <point x="1232.8" y="891.3" type="curve" smooth="yes"/>
      <point x="1232.8" y="1252.5"/>
      <point x="926.6" y="1334.8"/>
      <point x="565.4" y="1334.8" type="curve" smooth="yes"/>
      <point x="393.5" y="1334.8" type="line"/>
      <point x="393.5" y="1481.4" type="line"/>
      <point x="218.5" y="1481.4" type="line"/>
    </contour>
    <contour>
      <point x="393.5" y="602.3" type="line"/>
      <point x="393.5" y="1184.3" type="line"/>
      <point x="610.1" y="1184.3" type="line" smooth="yes"/>
      <point x="854.3" y="1184.3"/>
      <point x="1045.6" y="1133.4"/>
      <point x="1045.6" y="889.2" type="curve" smooth="yes"/>
      <point x="1045.6" y="839.4"/>
      <point x="1036.4" y="795.6"/>
      <point x="1017.1" y="760.0" type="curve" smooth="yes"/>
      <point x="958.2" y="650.2"/>
      <point x="827.8" y="602.3"/>
      <point x="659.0" y="602.3" type="curve" smooth="yes"/>
    </contour>
  </outline>
</glyph>
<glyph name="eth" format="1">
  <advance width="1280.5"/>
  <unicode hex="00F0"/>
  <outline>
    <contour>
      <point x="596.3" y="-24.7" type="curve" smooth="yes"/>
      <point x="678.7" y="-24.7"/>
      <point x="751.9" y="-9.4"/>
      <point x="817.0" y="21.0" type="curve" smooth="yes"/>
      <point x="1028.6" y="121.8"/>
      <point x="1117.2" y="365.9"/>
      <point x="1117.2" y="682.4" type="curve" smooth="yes"/>
      <point x="1117.2" y="817.8"/>
      <point x="1098.9" y="935.7"/>
      <point x="1068.4" y="1042.5" type="curve"/>
      <point x="1215.9" y="1042.5" type="line"/>
      <point x="1215.9" y="1181.9" type="line"/>
      <point x="1015.5" y="1181.9" type="line"/>
      <point x="941.2" y="1336.6"/>
      <point x="831.3" y="1451.5"/>
      <point x="669.5" y="1514.6" type="curve"/>
      <point x="589.2" y="1429.1" type="line"/>
      <point x="701.1" y="1366.1"/>
      <point x="784.5" y="1291.8"/>
      <point x="845.6" y="1181.9" type="curve"/>
      <point x="636.0" y="1181.9" type="line"/>
      <point x="636.0" y="1042.5" type="line"/>
      <point x="902.5" y="1042.5" type="line"/>
      <point x="926.9" y="952.0"/>
      <point x="938.1" y="860.4"/>
      <point x="939.1" y="744.4" type="curve"/>
      <point x="939.1" y="734.3" type="line"/>
      <point x="865.9" y="851.2"/>
      <point x="742.8" y="911.3"/>
      <point x="559.6" y="911.3" type="curve" smooth="yes"/>
      <point x="488.4" y="911.3"/>
      <point x="424.4" y="900.1"/>
      <point x="367.4" y="877.7" type="curve" smooth="yes"/>
      <point x="207.7" y="814.6"/>
      <point x="94.7" y="672.2"/>
      <point x="94.7" y="452.4" type="curve" smooth="yes"/>
      <point x="94.7" y="385.3"/>
      <point x="105.8" y="322.1"/>
      <point x="129.3" y="264.2" type="curve" smooth="yes"/>
      <point x="197.4" y="93.2"/>
      <point x="358.3" y="-24.7"/>
    </contour>
    <contour>
      <point x="588.2" y="118.8" type="curve" smooth="yes"/>
      <point x="540.3" y="118.8"/>
      <point x="497.6" y="126.8"/>
      <point x="458.9" y="143.1" type="curve" smooth="yes"/>
      <point x="350.0" y="189.9"/>
      <point x="273.8" y="294.8"/>
      <point x="273.8" y="447.3" type="curve" smooth="yes"/>
      <point x="273.8" y="647.8"/>
      <point x="384.6" y="768.8"/>
      <point x="587.1" y="768.8" type="curve" smooth="yes"/>
      <point x="760.1" y="768.8"/>
      <point x="879.1" y="674.2"/>
      <point x="923.9" y="544.0" type="curve"/>
      <point x="923.9" y="519.6" type="line" smooth="yes"/>
      <point x="923.9" y="293.7"/>
      <point x="817.0" y="118.8"/>
    </contour>
  </outline>
</glyph>
<glyph name="divide" format="1">
  <advance width="1568.9"/>
  <unicode hex="00F7"/>
  <outline>
    <contour>
      <point x="641.5" y="22.6" type="line"/>
      <point x="862.2" y="22.6" type="line"/>
      <point x="862.2" y="236.3" type="line"/>
      <point x="641.5" y="236.3" type="line"/>
    </contour>
    <contour>
      <point x="213.1" y="494.6" type="line"/>
      <point x="1279.4" y="494.6" type="line"/>
      <point x="1279.4" y="636.1" type="line"/>
      <point x="213.1" y="636.1" type="line"/>
    </contour>
    <contour>
      <point x="641.5" y="889.4" type="line"/>
      <point x="862.2" y="889.4" type="line"/>
      <point x="862.2" y="1103.1" type="line"/>
      <point x="641.5" y="1103.1" type="line"/>
    </contour>
  </outline>
</glyph>
<glyph name="thorn" format="1">
  <advance width="1333.2"/>
  <unicode hex="00FE"/>
  <outline>
    <contour>
      <point x="170.1" y="-459.5" type="line"/>
      <point x="337.9" y="-459.5" type="line"/>
      <point x="337.9" y="112.3" type="line"/>
      <point x="425.4" y="5.4"/>
      <point x="542.4" y="-48.5"/>
      <point x="688.9" y="-48.5" type="curve" smooth="yes"/>
      <point x="769.3" y="-48.5"/>
      <point x="838.5" y="-33.1"/>
      <point x="898.5" y="-2.6" type="curve" smooth="yes"/>
      <point x="1064.4" y="82.8"/>
      <point x="1168.1" y="263.9"/>
      <point x="1168.1" y="511.1" type="curve" smooth="yes"/>
      <point x="1168.1" y="583.3"/>
      <point x="1157.9" y="650.5"/>
      <point x="1138.6" y="715.7" type="curve" smooth="yes"/>
      <point x="1081.7" y="906.9"/>
      <point x="937.1" y="1044.2"/>
      <point x="688.9" y="1044.2" type="curve" smooth="yes"/>
      <point x="525.1" y="1044.2"/>
      <point x="415.3" y="974.0"/>
      <point x="340.0" y="872.3" type="curve"/>
      <point x="340.0" y="1455.3" type="line"/>
      <point x="170.1" y="1455.3" type="line"/>
    </contour>
    <contour>
      <point x="664.5" y="85.8" type="curve" smooth="yes"/>
      <point x="611.6" y="85.8"/>
      <point x="564.7" y="96.0"/>
      <point x="524.1" y="115.3" type="curve" smooth="yes"/>
      <point x="405.0" y="173.3"/>
      <point x="337.9" y="301.5"/>
      <point x="337.9" y="477.5" type="curve" smooth="yes"/>
      <point x="337.9" y="719.7"/>
      <point x="427.5" y="907.9"/>
      <point x="670.6" y="907.9" type="curve" smooth="yes"/>
      <point x="899.6" y="907.9"/>
      <point x="989.1" y="732.9"/>
      <point x="989.1" y="505.0" type="curve" smooth="yes"/>
      <point x="989.1" y="276.1"/>
      <point x="894.5" y="85.8"/>
    </contour>
  </outline>
</glyph>
<glyph name="dotlessi" format="1">
  <advance width="558.9"/>
  <unicode hex="0131"/>
  <outline>
    <contour>
      <point x="448.9" y="-5.4" type="curve" smooth="yes"/>
      <point x="497.0" y="-5.4"/>
      <point x="566.3" y="9.6"/>
      <point x="617.7" y="30.2" type="curve"/>
      <point x="597.4" y="151.2" type="line"/>
      <point x="561.3" y="137.8"/>
      <point x="504.3" y="127.8"/>
      <point x="473.9" y="127.8" type="curve" smooth="yes"/>
      <point x="403.9" y="127.8"/>
      <point x="347.3" y="157.5"/>
      <point x="347.3" y="295.7" type="curve" smooth="yes"/>
      <point x="347.3" y="1043.5" type="line"/>
      <point x="168.8" y="1043.5" type="line"/>
      <point x="168.8" y="282.5" type="line" smooth="yes"/>
      <point x="168.8" y="71.7"/>
      <point x="296.1" y="-5.4"/>
    </contour>
  </outline>
</glyph>
<glyph name="Lslash" format="1">
  <advance width="1205.2"/>
  <unicode hex="0141"/>
  <outline>
    <contour>
      <point x="206.4" y="0.0" type="line"/>
      <point x="1092.6" y="0.0" type="line"/>
      <point x="1092.6" y="150.6" type="line"/>
      <point x="381.4" y="150.6" type="line"/>
      <point x="381.4" y="724.4" type="line"/>
      <point x="671.4" y="905.5" type="line"/>
      <point x="671.4" y="1044.9" type="line"/>
      <point x="381.4" y="863.8" type="line"/>
      <point x="381.4" y="1481.4" type="line"/>
      <point x="206.4" y="1481.4" type="line"/>
      <point x="206.4" y="754.9" type="line"/>
      <point x="16.2" y="636.9" type="line"/>
      <point x="16.2" y="497.5" type="line"/>
      <point x="206.4" y="615.5" type="line"/>
    </contour>
  </outline>
</glyph>
<glyph name="oe" format="1">
  <advance width="2120.0"/>
  <unicode hex="0153"/>
  <outline>
    <contour>
      <point x="626.0" y="-30.1" type="curve" smooth="yes"/>
      <point x="840.7" y="-30.1"/>
      <point x="983.2" y="56.4"/>
      <point x="1045.2" y="211.0" type="curve"/>
      <point x="1106.3" y="61.5"/>
      <point x="1239.6" y="-30.1"/>
      <point x="1440.0" y="-30.1" type="curve" smooth="yes"/>
      <point x="1649.6" y="-30.1"/>
      <point x="1792.9" y="62.4"/>
      <point x="1873.3" y="207.9" type="curve"/>
      <point x="1783.8" y="295.5" type="line"/>
      <point x="1719.7" y="193.7"/>
      <point x="1606.9" y="109.3"/>
      <point x="1451.2" y="109.3" type="curve" smooth="yes"/>
      <point x="1400.4" y="109.3"/>
      <point x="1356.6" y="118.4"/>
      <point x="1317.9" y="135.7" type="curve" smooth="yes"/>
      <point x="1207.0" y="186.6"/>
      <point x="1141.9" y="299.6"/>
      <point x="1137.8" y="456.3" type="curve"/>
      <point x="1137.8" y="476.6" type="line"/>
      <point x="1905.9" y="478.6" type="line"/>
      <point x="1905.9" y="532.5" type="line" smooth="yes"/>
      <point x="1905.9" y="847.9"/>
      <point x="1761.4" y="1069.7"/>
      <point x="1447.0" y="1069.7" type="curve" smooth="yes"/>
      <point x="1242.5" y="1069.7"/>
      <point x="1119.5" y="978.2"/>
      <point x="1050.3" y="833.7" type="curve"/>
      <point x="974.0" y="979.2"/>
      <point x="849.9" y="1069.7"/>
      <point x="636.2" y="1069.7" type="curve" smooth="yes"/>
      <point x="550.8" y="1069.7"/>
      <point x="475.4" y="1055.5"/>
      <point x="408.3" y="1026.0" type="curve" smooth="yes"/>
      <point x="226.2" y="946.7"/>
      <point x="99.0" y="772.6"/>
      <point x="99.0" y="516.2" type="curve" smooth="yes"/>
      <point x="99.0" y="440.9"/>
      <point x="111.2" y="369.7"/>
      <point x="134.6" y="303.5" type="curve" smooth="yes"/>
      <point x="203.8" y="110.2"/>
      <point x="365.6" y="-30.1"/>
    </contour>
    <contour>
      <point x="636.2" y="109.3" type="curve" smooth="yes"/>
      <point x="574.2" y="109.3"/>
      <point x="520.2" y="120.5"/>
      <point x="475.4" y="141.9" type="curve" smooth="yes"/>
      <point x="349.3" y="201.9"/>
      <point x="275.1" y="331.1"/>
      <point x="275.1" y="514.2" type="curve" smooth="yes"/>
      <point x="275.1" y="570.1"/>
      <point x="283.1" y="623.0"/>
      <point x="298.4" y="672.9" type="curve" smooth="yes"/>
      <point x="341.1" y="814.3"/>
      <point x="445.9" y="931.3"/>
      <point x="628.0" y="931.3" type="curve" smooth="yes"/>
      <point x="866.1" y="931.3"/>
      <point x="966.9" y="756.3"/>
      <point x="966.9" y="518.3" type="curve" smooth="yes"/>
      <point x="966.9" y="290.4"/>
      <point x="865.2" y="109.3"/>
    </contour>
    <contour>
      <point x="1137.8" y="617.9" type="line"/>
      <point x="1140.9" y="658.6"/>
      <point x="1150.0" y="698.3"/>
      <point x="1165.2" y="736.0" type="curve" smooth="yes"/>
      <point x="1209.0" y="842.8"/>
      <point x="1304.6" y="931.3"/>
      <point x="1453.1" y="931.3" type="curve" smooth="yes"/>
      <point x="1640.4" y="931.3"/>
      <point x="1729.9" y="805.2"/>
      <point x="1729.9" y="617.9" type="curve"/>
    </contour>
  </outline>
</glyph>
<glyph name="uni0217" format="1">
  <advance width="1290.6"/>
  <unicode hex="0217"/>
  <outline>
    <contour>
      <point x="538.5" y="-23.7" type="curve" smooth="yes"/>
      <point x="699.3" y="-23.7"/>
      <point x="820.1" y="39.5"/>
      <point x="898.4" y="165.6" type="curve"/>
      <point x="912.4" y="43.7"/>
      <point x="1010.6" y="-31.4"/>
      <point x="1163.3" y="-4.4" type="curve"/>
      <point x="1181.7" y="136.5" type="line"/>
      <point x="1092.8" y="118.5"/>
      <point x="1039.1" y="159.0"/>
      <point x="1039.1" y="304.1" type="curve" smooth="yes"/>
      <point x="1039.1" y="1042.6" type="line"/>
      <point x="872.2" y="1042.6" type="line"/>
      <point x="872.2" y="433.1" type="line" smooth="yes"/>
      <point x="872.2" y="233.7"/>
      <point x="731.8" y="116.8"/>
      <point x="563.9" y="116.8" type="curve" smooth="yes"/>
      <point x="440.9" y="116.8"/>
      <point x="317.8" y="170.7"/>
      <point x="322.9" y="370.1" type="curve" smooth="yes"/>
      <point x="328.9" y="604.1" type="line" smooth="yes"/>
      <point x="338.1" y="952.6"/>
      <point x="271.3" y="1042.6"/>
      <point x="271.3" y="1042.6" type="curve"/>
      <point x="103.4" y="1016.1" type="line"/>
      <point x="103.4" y="1016.1"/>
      <point x="170.2" y="911.9"/>
      <point x="161.1" y="590.9" type="curve" smooth="yes"/>
      <point x="155.0" y="370.1" type="line" smooth="yes"/>
      <point x="146.9" y="80.1"/>
      <point x="341.2" y="-23.7"/>
    </contour>
    <contour>
      <point x="326.9" y="1237.9" type="curve"/>
      <point x="415.4" y="1237.9" type="line"/>
      <point x="430.7" y="1327.4"/>
      <point x="505.0" y="1369.2"/>
      <point x="608.8" y="1369.2" type="curve" smooth="yes"/>
      <point x="712.6" y="1369.2"/>
      <point x="792.9" y="1323.3"/>
      <point x="813.2" y="1237.9" type="curve"/>
      <point x="900.7" y="1237.9" type="line"/>
      <point x="887.5" y="1394.6"/>
      <point x="784.8" y="1478.0"/>
      <point x="615.9" y="1478.0" type="curve" smooth="yes"/>
      <point x="442.0" y="1478.0"/>
      <point x="340.1" y="1400.6"/>
    </contour>
  </outline>
</glyph>
<glyph name="caron" format="1">
  <advance width="752.2"/>
  <unicode hex="02C7"/>
  <outline>
    <contour>
      <point x="274.4" y="1259.1" type="line"/>
      <point x="433.0" y="1259.1" type="line"/>
      <point x="675.3" y="1587.7" type="line"/>
      <point x="518.5" y="1587.7" type="line"/>
      <point x="347.6" y="1368.9" type="line"/>
      <point x="180.8" y="1587.7" type="line"/>
      <point x="31.2" y="1587.7" type="line"/>
    </contour>
  </outline>
</glyph>
<glyph name="dotaccent" format="1">
  <advance width="563.8"/>
  <unicode hex="02D9"/>
  <outline>
    <contour>
      <point x="198.0" y="1340.9" type="line"/>
      <point x="360.9" y="1340.9" type="line"/>
      <point x="360.9" y="1506.7" type="line"/>
      <point x="198.0" y="1506.7" type="line"/>
    </contour>
  </outline>
</glyph>
<glyph name="tilde" format="1">
  <advance width="713.4"/>
  <unicode hex="02DC"/>
  <outline>
    <contour>
      <point x="15.1" y="1294.6" type="curve"/>
      <point x="121.9" y="1294.6" type="line"/>
      <point x="129.1" y="1352.5"/>
      <point x="159.5" y="1381.1"/>
      <point x="214.5" y="1381.1" type="curve" smooth="yes"/>
      <point x="311.2" y="1381.1"/>
      <point x="374.2" y="1311.9"/>
      <point x="471.9" y="1311.9" type="curve" smooth="yes"/>
      <point x="598.0" y="1311.9"/>
      <point x="657.1" y="1415.7"/>
      <point x="670.3" y="1530.7" type="curve"/>
      <point x="560.4" y="1530.7" type="line"/>
      <point x="553.3" y="1478.8"/>
      <point x="525.8" y="1439.1"/>
      <point x="471.9" y="1439.1" type="curve" smooth="yes"/>
      <point x="452.6" y="1439.1"/>
      <point x="432.1" y="1443.1"/>
      <point x="411.8" y="1450.3" type="curve" smooth="yes"/>
      <point x="352.8" y="1471.6"/>
      <point x="294.8" y="1508.3"/>
      <point x="217.5" y="1508.3" type="curve" smooth="yes"/>
      <point x="91.4" y="1508.3"/>
      <point x="25.2" y="1412.6"/>
    </contour>
  </outline>
</glyph>
<glyph name="Delta" format="1">
  <advance width="1414.0"/>
  <unicode hex="0394"/>
  <outline>
    <contour>
      <point x="43.1" y="0.0" type="line"/>
      <point x="1287.4" y="0.0" type="line"/>
      <point x="1287.4" y="81.4" type="line"/>
      <point x="758.3" y="1453.9" type="line"/>
      <point x="573.1" y="1453.9" type="line"/>
      <point x="43.1" y="81.4" type="line"/>
    </contour>
    <contour>
      <point x="276.1" y="164.8" type="line"/>
      <point x="628.1" y="1130.4" type="line"/>
      <point x="660.6" y="1239.2" type="line"/>
      <point x="695.2" y="1130.4" type="line"/>
      <point x="1053.4" y="164.8" type="line"/>
    </contour>
  </outline>
</glyph>
<glyph name="emdash" format="1">
  <advance width="2336.2"/>
  <unicode hex="2014"/>
  <outline>
    <contour>
      <point x="-3.2" y="526.2" type="line"/>
      <point x="2197.4" y="526.2" type="line"/>
      <point x="2197.4" y="665.6" type="line"/>
      <point x="-3.2" y="665.6" type="line"/>
    </contour>
  </outline>
</glyph>
<glyph name="dagger" format="1">
  <advance width="1099.7"/>
  <unicode hex="2020"/>
  <outline>
    <contour>
      <point x="446.8" y="121.6" type="line"/>
      <point x="577.1" y="121.6" type="line"/>
      <point x="577.1" y="956.9" type="line"/>
      <point x="941.3" y="956.9" type="line"/>
      <point x="941.3" y="1091.2" type="line"/>
      <point x="591.3" y="1091.2" type="line"/>
      <point x="591.3" y="1482.9" type="line"/>
      <point x="446.8" y="1482.9" type="line"/>
      <point x="446.8" y="1091.2" type="line"/>
      <point x="115.1" y="1091.2" type="line"/>
      <point x="115.1" y="956.9" type="line"/>
      <point x="446.8" y="956.9" type="line"/>
    </contour>
  </outline>
</glyph>
<glyph name="guilsinglleft" format="1">
  <advance width="690.8"/>
  <unicode hex="2039"/>
  <outline>
    <contour>
      <point x="386.7" y="184.0" type="line"/>
      <point x="545.4" y="184.0" type="line"/>
      <point x="285.9" y="560.4" type="line"/>
      <point x="553.5" y="940.0" type="line"/>
      <point x="391.8" y="940.0" type="line"/>
      <point x="113.0" y="560.4" type="line"/>
    </contour>
  </outline>
</glyph>
<glyph name="uni2074" format="1">
  <advance width="965.2"/>
  <unicode hex="2074"/>
  <outline>
    <contour>
      <point x="360.9" y="661.9" type="line"/>
      <point x="483.0" y="661.9" type="line"/>
      <point x="483.0" y="853.2" type="line"/>
      <point x="606.1" y="853.2" type="line"/>
      <point x="595.9" y="962.0" type="line"/>
      <point x="485.1" y="962.0" type="line"/>
      <point x="485.1" y="1472.7" type="line"/>
      <point x="348.7" y="1472.7" type="line"/>
      <point x="-23.7" y="945.7" type="line"/>
      <point x="-23.7" y="853.2" type="line"/>
      <point x="360.9" y="853.2" type="line"/>
    </contour>
    <contour>
      <point x="117.8" y="962.0" type="line"/>
      <point x="360.9" y="1301.8" type="line"/>
      <point x="360.9" y="962.0" type="line"/>
    </contour>
  </outline>
</glyph>
<glyph name="trademark" format="1">
  <advance width="2011.3"/>
  <unicode hex="2122"/>
  <outline>
    <contour>
      <point x="837.4" y="738.2" type="line"/>
      <point x="960.5" y="738.2" type="line"/>
      <point x="960.5" y="1342.6" type="line"/>
      <point x="1224.0" y="738.2" type="line"/>
      <point x="1305.4" y="738.2" type="line"/>
      <point x="1584.1" y="1343.6" type="line"/>
      <point x="1584.1" y="738.2" type="line"/>
      <point x="1708.2" y="738.2" type="line"/>
      <point x="1708.2" y="1516.6" type="line"/>
      <point x="1525.2" y="1516.6" type="line"/>
      <point x="1270.8" y="955.9" type="line"/>
      <point x="1030.7" y="1516.6" type="line"/>
      <point x="837.4" y="1516.6" type="line"/>
    </contour>
    <contour>
      <point x="332.8" y="738.2" type="line"/>
      <point x="458.9" y="738.2" type="line"/>
      <point x="458.9" y="1413.8" type="line"/>
      <point x="723.4" y="1413.8" type="line"/>
      <point x="723.4" y="1516.6" type="line"/>
      <point x="75.3" y="1516.6" type="line"/>
      <point x="75.3" y="1413.8" type="line"/>
      <point x="332.8" y="1413.8" type="line"/>
    </contour>
  </outline>
</glyph>
<glyph name="product" format="1">
  <advance width="1687.3"/>
  <unicode hex="220F"/>
  <outline>
    <contour>
      <point x="261.8" y="-354.1" type="line"/>
      <point x="439.8" y="-354.1" type="line"/>
      <point x="439.8" y="1280.9" type="line"/>
      <point x="1175.5" y="1280.9" type="line"/>
      <point x="1175.5" y="-354.1" type="line"/>
      <point x="1356.6" y="-354.1" type="line"/>
      <point x="1356.6" y="1280.9" type="line"/>
      <point x="1471.5" y="1280.9" type="line"/>
      <point x="1487.8" y="1428.4" type="line"/>
      <point x="118.4" y="1428.4" type="line"/>
      <point x="134.6" y="1280.9" type="line"/>
      <point x="261.8" y="1280.9" type="line"/>
    </contour>
  </outline>
</glyph>
<glyph name="minus" format="1">
  <advance width="1568.9"/>
  <unicode hex="2212"/>
  <outline>
    <contour>
      <point x="213.1" y="533.8" type="line"/>
      <point x="1280.4" y="533.8" type="line"/>
      <point x="1280.4" y="673.2" type="line"/>
      <point x="213.1" y="673.2" type="line"/>
    </contour>
  </outline>
</glyph>
<glyph name="radical" format="1">
  <advance width="1414.0"/>
  <unicode hex="221A"/>
  <outline>
    <contour>
      <point x="626.7" y="-164.6" type="line"/>
      <point x="764.1" y="-164.6" type="line"/>
      <point x="1238.2" y="1614.8" type="line"/>
      <point x="1106.0" y="1614.8" type="line"/>
      <point x="726.4" y="211.8" type="line"/>
      <point x="685.8" y="32.8" type="line"/>
      <point x="626.7" y="208.8" type="line"/>
      <point x="393.8" y="830.4" type="line"/>
      <point x="93.6" y="778.5" type="line"/>
      <point x="113.9" y="664.6" type="line"/>
      <point x="288.9" y="693.1" type="line"/>
    </contour>
  </outline>
</glyph>
<glyph name="infinity" format="1">
  <advance width="1855.2"/>
  <unicode hex="221E"/>
  <outline>
    <contour>
      <point x="473.7" y="253.9" type="curve" smooth="yes"/>
      <point x="514.3" y="253.9"/>
      <point x="553.0" y="260.1"/>
      <point x="589.7" y="272.3" type="curve" smooth="yes"/>
      <point x="715.8" y="316.0"/>
      <point x="804.3" y="411.6"/>
      <point x="880.6" y="510.3" type="curve"/>
      <point x="947.7" y="424.8"/>
      <point x="1013.9" y="360.7"/>
      <point x="1078.0" y="318.0" type="curve" smooth="yes"/>
      <point x="1142.1" y="275.3"/>
      <point x="1212.3" y="253.9"/>
      <point x="1287.6" y="253.9" type="curve" smooth="yes"/>
      <point x="1336.5" y="253.9"/>
      <point x="1383.2" y="263.1"/>
      <point x="1428.0" y="280.4" type="curve" smooth="yes"/>
      <point x="1554.2" y="330.3"/>
      <point x="1654.9" y="446.3"/>
      <point x="1654.9" y="619.3" type="curve" smooth="yes"/>
      <point x="1654.9" y="671.1"/>
      <point x="1646.8" y="717.9"/>
      <point x="1629.5" y="761.6" type="curve" smooth="yes"/>
      <point x="1579.6" y="887.8"/>
      <point x="1464.7" y="974.3"/>
      <point x="1289.7" y="974.3" type="curve" smooth="yes"/>
      <point x="1245.9" y="974.3"/>
      <point x="1206.2" y="968.3"/>
      <point x="1169.6" y="956.0" type="curve" smooth="yes"/>
      <point x="1042.4" y="913.3"/>
      <point x="958.0" y="816.6"/>
      <point x="882.6" y="717.9" type="curve"/>
      <point x="853.1" y="756.6"/>
      <point x="822.6" y="792.2"/>
      <point x="791.1" y="823.7" type="curve" smooth="yes"/>
      <point x="713.8" y="902.0"/>
      <point x="616.1" y="974.3"/>
      <point x="468.6" y="974.3" type="curve" smooth="yes"/>
      <point x="361.8" y="974.3"/>
      <point x="272.3" y="929.5"/>
      <point x="213.2" y="875.6" type="curve" smooth="yes"/>
      <point x="154.2" y="822.6"/>
      <point x="103.3" y="741.3"/>
      <point x="103.3" y="636.5" type="curve" smooth="yes"/>
      <point x="103.3" y="584.7"/>
      <point x="111.5" y="534.7"/>
      <point x="129.8" y="488.9" type="curve" smooth="yes"/>
      <point x="180.6" y="358.7"/>
      <point x="295.6" y="253.9"/>
    </contour>
    <contour>
      <point x="476.7" y="375.1" type="curve" smooth="yes"/>
      <point x="440.0" y="375.1"/>
      <point x="407.6" y="382.2"/>
      <point x="378.1" y="395.4" type="curve" smooth="yes"/>
      <point x="300.8" y="431.0"/>
      <point x="235.6" y="507.2"/>
      <point x="235.6" y="616.1" type="curve" smooth="yes"/>
      <point x="235.6" y="648.7"/>
      <point x="241.7" y="679.3"/>
      <point x="251.9" y="708.8" type="curve" smooth="yes"/>
      <point x="282.4" y="793.2"/>
      <point x="352.5" y="857.3"/>
      <point x="466.5" y="857.3" type="curve" smooth="yes"/>
      <point x="502.1" y="857.3"/>
      <point x="535.7" y="850.2"/>
      <point x="567.2" y="838.0" type="curve" smooth="yes"/>
      <point x="675.1" y="795.3"/>
      <point x="747.4" y="704.7"/>
      <point x="810.5" y="613.1" type="curve"/>
      <point x="765.7" y="552.0"/>
      <point x="714.7" y="490.0"/>
      <point x="656.8" y="445.2" type="curve" smooth="yes"/>
      <point x="610.0" y="408.6"/>
      <point x="553.0" y="375.1"/>
    </contour>
    <contour>
      <point x="1290.6" y="375.1" type="curve" smooth="yes"/>
      <point x="1216.3" y="375.1"/>
      <point x="1166.5" y="400.5"/>
      <point x="1119.7" y="436.1" type="curve" smooth="yes"/>
      <point x="1054.5" y="484.9"/>
      <point x="1004.7" y="545.9"/>
      <point x="950.8" y="616.1" type="curve"/>
      <point x="992.5" y="677.2"/>
      <point x="1042.4" y="738.2"/>
      <point x="1099.4" y="783.0" type="curve" smooth="yes"/>
      <point x="1147.2" y="820.7"/>
      <point x="1208.2" y="857.3"/>
      <point x="1285.5" y="857.3" type="curve" smooth="yes"/>
      <point x="1319.1" y="857.3"/>
      <point x="1348.6" y="851.2"/>
      <point x="1377.1" y="840.0" type="curve" smooth="yes"/>
      <point x="1450.3" y="809.5"/>
      <point x="1513.5" y="743.3"/>
      <point x="1513.5" y="642.6" type="curve" smooth="yes"/>
      <point x="1513.5" y="487.9"/>
      <point x="1444.2" y="375.1"/>
    </contour>
  </outline>
</glyph>
<glyph name="integral" format="1">
  <advance width="755.4"/>
  <unicode hex="222B"/>
  <outline>
    <contour>
      <point x="271.7" y="-429.4" type="curve" smooth="yes"/>
      <point x="498.6" y="-429.4"/>
      <point x="573.9" y="-272.7"/>
      <point x="573.9" y="-46.8" type="curve" smooth="yes"/>
      <point x="573.9" y="1277.9" type="line" smooth="yes"/>
      <point x="573.9" y="1416.3"/>
      <point x="601.4" y="1498.6"/>
      <point x="739.8" y="1498.6" type="curve" smooth="yes"/>
      <point x="777.4" y="1498.6"/>
      <point x="825.2" y="1493.6"/>
      <point x="851.7" y="1483.4" type="curve"/>
      <point x="849.6" y="1614.6" type="line"/>
      <point x="804.8" y="1624.8"/>
      <point x="767.1" y="1635.9"/>
      <point x="711.2" y="1635.9" type="curve" smooth="yes"/>
      <point x="484.4" y="1635.9"/>
      <point x="407.0" y="1479.3"/>
      <point x="407.0" y="1253.4" type="curve" smooth="yes"/>
      <point x="407.0" y="-71.2" type="line" smooth="yes"/>
      <point x="407.0" y="-209.6"/>
      <point x="381.6" y="-292.0"/>
      <point x="243.2" y="-292.0" type="curve" smooth="yes"/>
      <point x="205.5" y="-292.0"/>
      <point x="157.7" y="-286.9"/>
      <point x="131.3" y="-276.7" type="curve"/>
      <point x="133.4" y="-408.0" type="line"/>
      <point x="182.2" y="-421.2"/>
      <point x="211.7" y="-429.4"/>
    </contour>
  </outline>
</glyph>
<glyph name="lessequal" format="1">
  <advance width="1453.8"/>
  <unicode hex="2264"/>
  <outline>
    <contour>
      <point x="1175.4" y="220.3" type="line"/>
      <point x="1175.4" y="363.7" type="line"/>
      <point x="387.9" y="722.8" type="line"/>
      <point x="1175.4" y="1098.3" type="line"/>
      <point x="1175.4" y="1240.8" type="line"/>
      <point x="209.9" y="760.5" type="line"/>
      <point x="209.9" y="678.1" type="line"/>
    </contour>
    <contour>
      <point x="173.3" y="9.6" type="line"/>
      <point x="1204.9" y="9.6" type="line"/>
      <point x="1204.9" y="133.8" type="line"/>
      <point x="173.3" y="133.8" type="line"/>
    </contour>
  </outline>
</glyph>
<glyph name="lozenge" format="1">
  <advance width="1343.0"/>
  <unicode hex="25CA"/>
  <outline>
    <contour>
      <point x="578.4" y="-48.4" type="line"/>
      <point x="686.2" y="-48.4" type="line"/>
      <point x="1156.2" y="721.7" type="line"/>
      <point x="695.3" y="1493.0" type="line"/>
      <point x="586.4" y="1493.0" type="line"/>
      <point x="120.5" y="720.7" type="line"/>
    </contour>
    <contour>
      <point x="632.3" y="97.1" type="curve"/>
      <point x="515.3" y="308.7"/>
      <point x="392.1" y="514.2"/>
      <point x="272.1" y="722.8" type="curve"/>
      <point x="395.2" y="930.3"/>
      <point x="525.4" y="1130.7"/>
      <point x="642.5" y="1344.4" type="curve"/>
      <point x="758.4" y="1132.8"/>
      <point x="882.6" y="929.3"/>
      <point x="1002.6" y="720.7" type="curve"/>
      <point x="879.5" y="512.1"/>
      <point x="750.3" y="309.8"/>
    </contour>
  </outline>
</glyph>
<glyph name="uniFB01" format="1">
  <advance width="1296.7"/>
  <unicode hex="FB01"/>
  <outline>
    <contour>
      <point x="253.0" y="0.0" type="line"/>
      <point x="420.8" y="0.0" type="line"/>
      <point x="420.8" y="935.0" type="line"/>
      <point x="886.8" y="935.0" type="line"/>
      <point x="886.8" y="0.0" type="line"/>
      <point x="1054.7" y="0.0" type="line"/>
      <point x="1054.7" y="1043.9" type="line"/>
      <point x="420.8" y="1043.9" type="line"/>
      <point x="421.8" y="1182.3" type="line" smooth="yes"/>
      <point x="421.8" y="1319.6"/>
      <point x="448.3" y="1403.0"/>
      <point x="585.6" y="1403.0" type="curve" smooth="yes"/>
      <point x="623.2" y="1403.0"/>
      <point x="671.1" y="1397.9"/>
      <point x="697.5" y="1387.7" type="curve"/>
      <point x="695.5" y="1519.1" type="line"/>
      <point x="650.7" y="1529.2"/>
      <point x="613.0" y="1540.4"/>
      <point x="557.1" y="1540.4" type="curve" smooth="yes"/>
      <point x="330.2" y="1540.4"/>
      <point x="257.9" y="1381.6"/>
      <point x="254.9" y="1157.8" type="curve" smooth="yes"/>
      <point x="253.0" y="1043.9" type="line"/>
      <point x="48.4" y="1043.9" type="line"/>
      <point x="48.4" y="935.0" type="line"/>
      <point x="253.0" y="935.0" type="line"/>
    </contour>
    <contour>
      <point x="894.9" y="1329.8" type="line"/>
      <point x="1050.6" y="1329.8" type="line"/>
      <point x="1050.6" y="1487.5" type="line"/>
      <point x="894.9" y="1487.5" type="line"/>
    </contour>
  </outline>
</glyph>
<glyph name="s.alt" format="1">
  <advance width="1077.2"/>
  <outline>
    <contour>
      <point x="568.3" y="-28.0" type="curve" smooth="yes"/>
      <point x="758.5" y="-28.0"/>
      <point x="924.4" y="51.3"/>
      <point x="924.4" y="287.4" type="curve" smooth="yes"/>
      <point x="924.4" y="499.0"/>
      <point x="729.0" y="555.0"/>
      <point x="566.2" y="604.9" type="curve" smooth="yes"/>
      <point x="469.6" y="634.4"/>
      <point x="296.7" y="662.9"/>
      <point x="296.7" y="786.0" type="curve" smooth="yes"/>
      <point x="296.7" y="894.9"/>
      <point x="395.3" y="931.4"/>
      <point x="508.3" y="931.4" type="curve" smooth="yes"/>
      <point x="623.2" y="931.4"/>
      <point x="751.5" y="893.8"/>
      <point x="807.4" y="857.2" type="curve"/>
      <point x="855.2" y="981.3" type="line"/>
      <point x="755.5" y="1041.4"/>
      <point x="629.3" y="1072.9"/>
      <point x="509.3" y="1072.9" type="curve" smooth="yes"/>
      <point x="305.8" y="1072.9"/>
      <point x="122.6" y="982.3"/>
      <point x="122.6" y="782.9" type="curve" smooth="yes"/>
      <point x="122.6" y="578.4"/>
      <point x="294.6" y="519.4"/>
      <point x="462.5" y="469.5" type="curve" smooth="yes"/>
      <point x="571.4" y="437.0"/>
      <point x="758.5" y="409.5"/>
      <point x="758.5" y="275.2" type="curve" smooth="yes"/>
      <point x="758.5" y="151.0"/>
      <point x="661.9" y="112.4"/>
      <point x="544.9" y="112.4" type="curve" smooth="yes"/>
      <point x="409.5" y="112.4"/>
      <point x="246.8" y="171.4"/>
      <point x="170.5" y="229.4" type="curve"/>
      <point x="122.6" y="90.0" type="line"/>
      <point x="230.5" y="23.8"/>
      <point x="409.6" y="-28.0"/>
    </contour>
  </outline>
</glyph>
